<svg xmlns="http://www.w3.org/2000/svg" xmlns:xlink="http://www.w3.org/1999/xlink" width="1200" height="600" viewBox="0 0 899.824 449.901" preserveAspectRatio="xMidYMid meet" xmlns:v="https://vecta.io/nano"><style><![CDATA[.F{font-size:12.744px}.G{font-family:DejaVu Sans Mono}.H{word-spacing:0px}.I{font-size:6.372px}.J{font-family:Roboto}.K{stroke-width:.125}.L{stroke-linejoin:round}]]></style><defs><path id="A" d="M418.402 1039.864c-1.9 1.9-2 3.3-2 40s.1 38.1 2 40c2 2 3.3 2 219.8 2l219.5-1.8c1.5-1.7 1.7-5.9 1.7-39.8 0-32.7-.2-38.3-1.6-40.2l-1.5-2.2h-218z"/></defs><g transform="translate(8.998 11.663)"><path d="M684.088 23.098c-3.743.538-6.85 1.712-9.06 3.405-2.11 1.633-4.002 4.66-4.878 7.825-1.055 3.883-.996-7.925-.996 178.89l.22 174.927c.438 4.42 1.473 7.467 3.485 10.075 1.812 2.39 4.46 4.022 8.144 5.018l1.99.558h159.694l1.99-.577c2.45-.717 3.365-1.095 4.78-2.01 3.743-2.39 5.874-6.213 6.65-11.907.16-1.095.22-32.417.22-102.865V185.122l1.035-.956-.1-10.613c-.12-10.334-.12-10.613-.518-11.11-.398-.518-.418-.757-.418-8.144v-7.606l1.035-1.115-.12-25.786-.538-26.284c-.378-.478-.378-1.035-.378-27.3l-.22-28.594c-.418-3.325-1.673-6.8-3.206-8.72-2.53-3.186-5.496-4.76-10.653-5.615l-2.887-.498-76.68.02zm155.413.478c2.33.26 5.516 1.055 6.77 1.712l1.693.876c1.334.697 3.086 2.3 4.24 3.883 2.11 2.887 2.967 5.336 3.325 9.598.28 3.465.28 344.04-.02 347.743-.677 8.522-5.496 14.078-13.5 15.53-2.01.358-4.34.378-79.35.378-82.854 0-78.413.06-81.46-.916-1.434-.458-3.783-1.772-5.217-2.907-2.688-2.13-4.74-5.794-5.595-10.016-.3-1.454-.32-16.09-.378-174.13l.14-175.226c.32-4.102.956-6.272 2.608-9.14 1.294-2.25 4.182-4.66 7.168-5.974 1.175-.538 4.102-1.235 5.854-1.414 2.2-.22 151.63-.22 153.72 0zM714.952 24.8l-31.86.358c-2.25.398-4.56.996-5.237 1.334-1.016.518-2.788 1.97-3.743 3.027-1.055 1.155-2.07 3.903-2.37 6.352l-.398 3.365c-.14 1.235-.2 55.176-.2 174.33l.3 175.007c.558 4.78 1.473 7.288 3.465 9.418 2.05 2.17 4.4 3.266 8.443 3.923 2.39.378 3.863.378 79.688.378l79.53-.398c2.45-.418 4.78-1.235 6.193-2.13 1.155-.737 2.688-2.33 3.405-3.564.796-1.314 1.732-4.32 2.07-6.61.26-1.653.3-25.268.3-176.24l-.398-176.66c-.518-3.106-1.533-5.755-2.728-7.11-1.414-1.613-3.425-2.907-5.516-3.584C841.87 24.7 844.06 24.77 792.4 24.7c-25.786-.02-60.652.02-77.458.08zm128.193 5.297c1.314.32 3.823 1.633 4.48 2.33.737.796 1.852 2.45 2.11 3.166.12.32.358 1.215.538 1.99.28 1.294.3 17.045.28 167.68l-.398 167.66c-.538 2.09-1.135 3.266-2.25 4.44-1.155 1.215-2.13 1.832-4.162 2.59l-1.454.558h-79.37c-57.824 0-79.45-.06-79.648-.22-.16-.12-.577-.28-.936-.34-1.115-.22-2.887-1.175-3.883-2.11-1.195-1.115-2.2-2.768-2.768-4.66l-.458-1.434v-167.36l.358-168.555c.916-2.987 2.828-4.878 5.755-5.715 1.792-.518 159.714-.538 161.805-.02zm-8.204 3.724c-.597.558-.717.796-.717 1.493 0 1.115.438 1.892 1.294 2.3.597.3 1.254.34 4.48.28l3.783-.06.597-.597c.757-.777.956-1.792.518-2.728-.597-1.254-.996-1.354-5.356-1.354h-3.903zm8.702-.06c.26.12.617.458.796.777.518.876.418 1.553-.34 2.3l-.677.677H839.8c-3.027 0-3.724-.06-4.182-.34-1.354-.777-1.294-2.887.08-3.445.617-.26 7.367-.24 7.945.02zm-5.755.657c-.06.14-.08.757-.04 1.334l.06 1.075 2.608.06c2.39.04 2.648.02 3.126-.358.657-.518.717-1.414.14-1.99-.358-.358-.657-.398-3.086-.398-2.11 0-2.728.06-2.808.28zM819.71 49.58c-.378.498-.418.796-.418 3.883 0 1.832.06 3.485.12 3.664.28.717 1.135.896 4.36.896 3.126 0 3.704-.1 4.22-.777.18-.22.24-1.354.26-3.724 0-3.146-.04-3.445-.418-3.943l-.398-.518h-7.328zm7.447 3.962v3.385h-6.77l-.06-3.186c-.02-1.732 0-3.285.06-3.425.06-.22.816-.26 3.425-.22l3.345.06zm-3.962-.717c-.916 1.513-.936 1.812-.02 1.812.558 0 .697.08.697.398 0 .3.14.398.498.398s.498-.1.498-.378c0-.22.12-.418.26-.478.2-.08.2-.14 0-.358-.16-.14-.26-.757-.26-1.414 0-1.075-.04-1.155-.478-1.155-.358 0-.637.28-1.195 1.175z"/><use transform="matrix(.19912 0 0 .19912 -120.39564 3.418534)" xlink:href="#A" x="3797.795" y="-147.634"/><g transform="matrix(.19912 0 0 .19912 635.82131 -25.978348)" fill="#e6e6e6"><use y="-100.216" x="-.862" xlink:href="#A"/><use y="-196.614" x=".343" xlink:href="#A"/></g><text letter-spacing="0" y="376.153" x="740.915" xml:space="preserve" class="F G H"><tspan y="376.153" x="740.915" class="I J">© 2019 VOICEN</tspan></text><text letter-spacing="0" y="129.5" x="707.599" xml:space="preserve" class="F G H"><tspan y="129.5" x="707.599" class="I J">Send WiFi settings through sound wave</tspan></text><text letter-spacing="0" y="54.88" x="699.289" xml:space="preserve" class="F G H"><tspan y="54.88" x="699.289" class="I J">https://voicen.io/hey-wifi</tspan></text><text letter-spacing="0" y="191.721" x="744.852" xml:space="preserve" class="F G H"><tspan y="191.721" x="744.852" fill="#fff" class="I J">BROADCAST</tspan></text><text letter-spacing="0" y="170.85" x="749.376" xml:space="preserve" class="F G H"><tspan y="170.85" x="749.376" fill="#666" class="I J">password</tspan></text><text letter-spacing="0" y="151.631" x="757.485" xml:space="preserve" fill="#666" class="F G H"><tspan y="151.631" x="757.485" class="I J">ssid</tspan></text><path d="M825.927 37.676q-.08 0-.36-.286-.284-.286-.284-.363 0-.124.243-.2.243-.086.402-.086.16 0 .402.086.243.086.243.2 0 .08-.284.363-.284.286-.36.286zm1.05-1.055q-.008 0-.155-.097-.148-.097-.394-.194-.247-.097-.5-.097-.253 0-.5.097-.247.097-.393.194-.146.097-.16.097-.07 0-.363-.292-.294-.292-.294-.36 0-.05.04-.1.303-.3.762-.47.46-.17.906-.17.447 0 .906.17.46.17.762.47.04.04.04.1 0 .07-.293.36-.293.292-.363.292zm1.06-1.055q-.043 0-.1-.03-.53-.408-.98-.6-.45-.192-1.04-.192-.33 0-.663.086-.333.086-.577.206-.247.12-.44.24-.194.12-.307.206-.113.086-.12.086-.066 0-.358-.292-.292-.292-.292-.36 0-.047.04-.086.513-.513 1.244-.797.73-.284 1.477-.284.746 0 1.477.284.73.284 1.244.797.04.04.04.086 0 .07-.292.36-.292.292-.358.292zm1.055-1.055q-.043 0-.086-.035-.696-.6-1.444-.92-.748-.31-1.634-.31-.886 0-1.634.31-.748.31-1.444.92-.043.035-.086.035-.066 0-.36-.292-.293-.292-.293-.36 0-.05.04-.1.727-.723 1.73-1.12 1.003-.398 2.048-.398 1.045 0 2.048.398 1.003.398 1.73 1.12.04.04.04.1 0 .07-.293.36-.294.292-.36.292zM687.48 51.3h3.268v-1.226q0-.677-.48-1.155-.48-.48-1.155-.48-.677 0-1.155.48-.48.48-.48 1.155zm5.31.613v3.677q0 .255-.18.434-.18.18-.434.18h-6.128q-.255 0-.434-.18-.18-.18-.18-.434V51.91q0-.255.18-.434.18-.18.434-.18h.204v-1.226q0-1.175.843-2.017.843-.843 2.017-.843 1.175 0 2.017.843.843.843.843 2.017v1.226h.204q.255 0 .434.18.18.18.18.434z"/><text letter-spacing="0" y="37.683" x="681.833" xml:space="preserve" class="F G H"><tspan y="37.683" x="681.833" class="I J">8:00</tspan></text><path d="M763.258 356.123a5.51 5.51 0 0 0-5.507 5.507c0 2.434 1.578 4.497 3.763 5.225.275.052.378-.118.378-.265l-.007-.936c-1.532.332-1.855-.737-1.855-.737-.25-.636-.613-.805-.613-.805-.5-.34.04-.335.04-.335.553.038.843.567.843.567.49.842 1.29.6 1.604.458.05-.358.19-.6.35-.737-1.223-.14-2.508-.61-2.508-2.72 0-.6.213-1.092.567-1.477-.06-.14-.248-.697.048-1.458 0 0 .46-.148 1.514.565.44-.122.91-.183 1.377-.186.468.003.936.063 1.377.186 1.046-.712 1.507-.565 1.507-.565.296.757.1 1.318.055 1.458.35.385.565.877.565 1.477 0 2.115-1.287 2.58-2.512 2.717.193.165.372.503.372 1.02l-.007 1.508c0 .145.096.32.378.262 2.203-.722 3.78-2.787 3.78-5.217a5.51 5.51 0 0 0-5.507-5.507M839.52 51.49c.605 0 1.096-.5 1.096-1.096s-.49-1.096-1.096-1.096a1.096 1.096 0 1 0 0 2.191m0 1.096a1.095 1.095 0 1 0 0 2.191c.605 0 1.096-.5 1.096-1.095s-.49-1.096-1.096-1.096m0 3.286c-.605 0-1.096.49-1.096 1.096a1.095 1.095 0 0 0 1.096 1.096c.605 0 1.096-.5 1.096-1.096s-.49-1.096-1.096-1.096"/><path d="M843.126 67.456H680.93" fill="#f9f9f9" stroke="#4d4d4d" stroke-width=".143"/><path d="M703.27 95.615c5-3.14 9.998 6.265 14.997 9.183s9.998-23.9 14.997-26.15 9.998 37.897 14.997 39.136 9.998-46.124 14.997-46.164 9.998 47.33 14.997 46.164 9.998-41.33 14.997-39.136 9.998 29.036 14.997 26.15 9.998-12.324 14.997-9.183" fill="none" stroke="#000" stroke-width="1.5" stroke-linecap="round"/></g><g transform="matrix(2.834087 0 0 2.834087 32.080018 -.004637)"><g transform="matrix(4.231133 0 0 4.231133 -6.573442 -1075.1554)" fill="none" stroke="#0f0" class="K"><g class="L"><path d="M28.1 261.53l-.465.15-.437-.146m0 0l.465-.15.437.145"/><path d="M51.48 257.65l-37.144 13.676"/><path d="M50.154 273.035l1.326-15.386-12.887-3.14-36.94 10.707L4.37 283.23l11.804 7.992 33.98-18.2"/><path d="M1.654 265.215l12.682 6.1 1.838 19.898m10.332-29.166l-.465.15-.437-.146m0 0l.465-.15.437.145m4.602-1.496l-.44.143-.437-.138m0 0l.44-.142.437.137"/><ellipse cx="24.462" cy="262.565" rx=".346" ry=".127"/><ellipse ry=".127" rx=".346" cy="257.119" cx="41.25"/><ellipse ry=".127" rx=".346" cy="266.053" cx="13.711"/><ellipse ry=".127" rx=".346" cy="259.627" cx="33.518"/><path d="M32.593 260.077l-.465.15-.437-.146m0 0l.465-.15.437.145"/></g><path d="M28.732 261.182l.92-.303"/><path d="M28.8 260.842l.784.378"/><ellipse ry=".317" rx=".866" cy="261.031" cx="29.192"/><g class="L"><path d="M26.32 270.338l-.46 1.444m-.003-.002l2.578-.38m.001.002l.326-1.2"/><path d="M29.92 271.26l-1.157-1.056-.167-.032-.024-.005-.4-.08m-1.66-.187l1.66.176-1.842.252m-.793 2.942l2.633-.417m-.001.002l.275-1.453 1.483-.143.947 1.315"/><path d="M23.683 272.258l2.174-.477-.33 1.5m-.197 1.516l2.662-.452m.001 0l.168-1.5 2.706-.28.198.497m-7.762.733l2.225-.524-.197 1.525m-.065 1.55l2.666-.483m-.002-.001l.06-1.518 2.983-.33m-7.893 1.35l2.252-.568-.065 1.55m.063 1.566l2.645-.512"/><path d="M27.976 277.4l-.044-1.537 2.986-.355M23 276.955l2.256-.608.066 1.565m.204 1.568l2.6-.535m-.001.001l-.15-1.546 2.964-.375m-7.845 1.53l2.237-.643.195 1.57m.322 1.563l2.53-.552m-.001-.001l-.252-1.546 2.672-.36m-7.467 1.567l2.195-.672.322 1.564m-2.13.692l2.13-.693.447 1.548m.001 0l1.796-.415"/><path d="M26.47 283.064l1.62-.887.588-.372M31.004 278l-.208.576-.964 1.698-1.153 1.52-.302-1.313 1.456-.208m-5.693-9.298l.648-.335 1.715-.74-.183.428-1.53.312m6.185 3.364l.1-.942.215.923m-.362 1.515l.058-1.495.303-.02.098 1.483m-.437 1.547l-.022-1.516.406-.028.052-.004m-.01.01l-.135 1.526-.236 1.008-.065-.986.3-.022m-9.748-2.006l-.16 1.044m0 .001l1.747-.677m-.08 1.6l.07-1.6.224-1.57"/><path d="M23.683 272.258l-.38 1.537-1.573.57"/><path d="M22.842 272.543l-1.1 1.822-.24.633-.263 1.114m.03 1.568l1.75-.725.085 1.6"/><path d="M21.102 277.794l.127-1.682.103-.07-.073 1.64m.1 1.64l1.734-.767.237 1.598m-2.23-2.36l.157-.114.1 1.64m.42 1.563l1.55-.73.386 1.585"/><path d="M24.14 270.985l-.457 1.273-.84.287 1.298-1.558m-2.883 8.413l-.156-1.607m.434 2.58l-.28-.973.102-.08.176 1.052.245.5 1.112 1.267m1.28.92l-1.278-.92.824-.413.454 1.333.632.037m1.668-.043l-1.668.042 1.492-.514.177.472"/></g></g><path d="M179.38 10.614c-.06.7-1.937 1.418-4.106 1.308s-3.914-.976-3.854-1.685 2.044-1.808 4.212-1.697 3.807 1.366 3.747 2.075zm-135.4 43.74c.067 1.2-2.237 2.4-5.145 2.655s-5.32-.516-5.386-1.726 2.07-2.74 4.98-2.998 5.485.858 5.552 2.068z" fill="#0f0"/></g></svg>