<svg xmlns="http://www.w3.org/2000/svg" xmlns:xlink="http://www.w3.org/1999/xlink" width="1200" height="600" viewBox="0 0 899.824 449.901" preserveAspectRatio="xMidYMid meet"><style><![CDATA[.K{stroke-linejoin:round}.L{font-size:64px}.M{font-family:DejaVu Sans Mono}.N{word-spacing:0px}.O{font-size:32px}.P{font-family:Roboto}.Q{stroke-width:1.89}.R{stroke-width:.756}.S{stroke-opacity:.96}]]></style><defs><path id="A" d="M418.402 1039.864c-1.9 1.9-2 3.3-2 40s.1 38.1 2 40c2 2 3.3 2 219.8 2l219.5-1.8c1.5-1.7 1.7-5.9 1.7-39.8 0-32.7-.2-38.3-1.6-40.2l-1.5-2.2h-218z"/><path id="B" d="M837.5 266.828l9.515-3.074.377-.122 9.307 3.085"/></defs><g transform="matrix(.19912 0 0 .19912 -77.932591 -5.343682)"><path d="M4040.197 98.83c-18.8 2.7-34.4 8.6-45.5 17.1-10.6 8.2-20.1 23.4-24.5 39.3-5.3 19.5-5-39.8-5 898.4l1.1 878.5c2.2 22.2 7.4 37.5 17.5 50.6 9.1 12 22.4 20.2 40.9 25.2l10 2.8h802l10-2.9c12.3-3.6 16.9-5.5 24-10.1 18.8-12 29.5-31.2 33.4-59.8.8-5.5 1.1-162.8 1.1-516.6v-508.8l5.2-4.8-.5-53.3c-.6-51.9-.6-53.3-2.6-55.8-2-2.6-2.1-3.8-2.1-40.9v-38.2l5.2-5.6-.6-129.5-2.7-132c-1.9-2.4-1.9-5.2-1.9-137.1l-1.1-143.6c-2.1-16.7-8.4-34.1-16.1-43.8-12.7-16-27.6-23.9-53.5-28.2l-14.5-2.5-385.1.1zm780.5 2.4c11.7 1.3 27.7 5.3 34 8.6l8.5 4.4c6.7 3.5 15.5 11.6 21.3 19.5 10.6 14.5 14.9 26.8 16.7 48.2 1.4 17.4 1.4 1727.8-.1 1746.4-3.4 42.8-27.6 70.7-67.8 78-10.1 1.8-21.8 1.9-398.5 1.9-416.1 0-393.8.3-409.1-4.6-7.2-2.3-19-8.9-26.2-14.6-13.5-10.7-23.8-29.1-28.1-50.3-1.5-7.3-1.6-80.8-1.9-874.5l.7-880c1.6-20.6 4.8-31.5 13.1-45.9 6.5-11.3 21-23.4 36-30 5.9-2.7 20.6-6.2 29.4-7.1 11-1.1 761.5-1.1 772 0zm-625.5 6.1l-160 1.8c-11.3 2-22.9 5-26.3 6.7-5.1 2.6-14 9.9-18.8 15.2-5.3 5.8-10.4 19.6-11.9 31.9l-2 16.9c-.7 6.2-1 277.1-1 875.5l1.5 878.9c2.8 24 7.4 36.6 17.4 47.3 10.3 10.9 22.1 16.4 42.4 19.7 12 1.9 19.4 1.9 400.2 1.9l399.4-2c12.3-2.1 24-6.2 31.1-10.7 5.8-3.7 13.5-11.7 17.1-17.9 4-6.6 8.7-21.7 10.4-33.2 1.3-8.3 1.5-126.9 1.5-885.1l-2-887.2c-2.6-15.6-7.7-28.9-13.7-35.7-7.1-8.1-17.2-14.6-27.7-18-20.2-6.4-9.2-6.1-268.6-6.4-129.5-.1-304.6.1-389 .4zm643.8 26.6c6.6 1.6 19.2 8.2 22.5 11.7 3.7 4 9.3 12.3 10.6 15.9.6 1.6 1.8 6.1 2.7 10 1.4 6.5 1.5 85.6 1.4 842.1l-2 842c-2.7 10.5-5.7 16.4-11.3 22.3-5.8 6.1-10.7 9.2-20.9 13l-7.3 2.8h-398.6c-290.4 0-399-.3-400-1.1-.8-.6-2.9-1.4-4.7-1.7-5.6-1.1-14.5-5.9-19.5-10.6-6-5.6-11-13.9-13.9-23.4l-2.3-7.2v-840.5l1.8-846.5c4.6-15 14.2-24.5 28.9-28.7 9-2.6 802.1-2.7 812.6-.1zm-41.2 18.7c-3 2.8-3.6 4-3.6 7.5 0 5.6 2.2 9.5 6.5 11.5 3 1.5 6.3 1.7 22.5 1.4l19-.3 3-3c3.8-3.9 4.8-9 2.6-13.7-3-6.3-5-6.8-26.9-6.8h-19.6zm43.7-.3c1.3.6 3.1 2.3 4 3.9 2.6 4.4 2.1 7.8-1.7 11.6l-3.4 3.4h-18.2c-15.2 0-18.7-.3-21-1.7-6.8-3.9-6.5-14.5.4-17.3 3.1-1.3 37-1.2 39.9.1zm-28.9 3.3c-.3.7-.4 3.8-.2 6.7l.3 5.4 13.1.3c12 .2 13.3.1 15.7-1.8 3.3-2.6 3.6-7.1.7-10-1.8-1.8-3.3-2-15.5-2-10.6 0-13.7.3-14.1 1.4zm-91.3 76.2c-1.9 2.5-2.1 4-2.1 19.5 0 9.2.3 17.5.6 18.4 1.4 3.6 5.7 4.5 21.9 4.5 15.7 0 18.6-.5 21.2-3.9.9-1.1 1.2-6.8 1.3-18.7 0-15.8-.2-17.3-2.1-19.8l-2-2.6h-36.8zm37.4 19.9v17h-34l-.3-16c-.1-8.7 0-16.5.3-17.2.3-1.1 4.1-1.3 17.2-1.1l16.8.3zm-19.9-3.6c-4.6 7.6-4.7 9.1-.1 9.1 2.8 0 3.5.4 3.5 2 0 1.5.7 2 2.5 2s2.5-.5 2.5-1.9c0-1.1.6-2.1 1.3-2.4 1-.4 1-.7 0-1.8-.8-.7-1.3-3.8-1.3-7.1 0-5.4-.2-5.8-2.4-5.8-1.8 0-3.2 1.4-6 5.9z"/><use xlink:href="#A" x="3797.795" y="-147.634"/><g transform="translate(3797.795 -147.634)" fill="#e6e6e6"><use y="-100.216" x="-.862" xlink:href="#A"/><use y="-196.614" x=".343" xlink:href="#A"/></g><text letter-spacing="0" y="1871.91" x="4325.585" xml:space="preserve" class="L M N"><tspan y="1871.91" x="4325.585" class="O P">© 2019 VOICEN</tspan></text><text letter-spacing="0" y="633.192" x="4158.272" xml:space="preserve" class="L M N"><tspan y="633.192" x="4158.272" class="O P">Send WiFi settings through sound wave</tspan></text><text letter-spacing="0" y="258.444" x="4116.537" xml:space="preserve" class="L M N"><tspan y="258.444" x="4116.537" class="O P">https://voice-engine.github.io/wave</tspan></text><text letter-spacing="0" y="945.675" x="4345.358" xml:space="preserve" class="L M N"><tspan y="945.675" x="4345.358" fill="#fff" class="O P">BROADCAST</tspan></text><text letter-spacing="0" y="840.858" x="4368.077" xml:space="preserve" class="L M N"><tspan y="840.858" x="4368.077" fill="#666" class="O P">password</tspan></text><text letter-spacing="0" y="744.339" x="4408.803" xml:space="preserve" fill="#666" class="L M N"><tspan y="744.339" x="4408.803" class="O P">ssid</tspan></text><path d="M4752.525 172.044q-.4 0-1.815-1.435-1.425-1.435-1.425-1.825 0-.625 1.22-1.054 1.22-.43 2.02-.43.8 0 2.02.43 1.22.43 1.22 1.054 0 .4-1.425 1.825-1.425 1.435-1.815 1.435zm5.27-5.3q-.04 0-.78-.488-.742-.488-1.98-.976-1.24-.488-2.508-.488-1.27 0-2.508.488-1.24.488-1.972.976-.732.488-.8.488-.35 0-1.825-1.464-1.474-1.464-1.474-1.815 0-.254.195-.45 1.523-1.503 3.826-2.362 2.303-.86 4.548-.86 2.245 0 4.548.86 2.303.86 3.826 2.362.195.195.195.45 0 .35-1.474 1.815-1.474 1.464-1.825 1.464zm5.33-5.3q-.215 0-.45-.156-2.655-2.05-4.92-3.016-2.264-.966-5.23-.966-1.66 0-3.328.43-1.67.43-2.9 1.035-1.24.605-2.216 1.2-.976.605-1.542 1.035-.566.43-.605.43-.332 0-1.796-1.464-1.464-1.464-1.464-1.815 0-.234.195-.43 2.577-2.577 6.246-4.002 3.67-1.425 7.418-1.425 3.748 0 7.418 1.425 3.67 1.425 6.246 4.002.195.195.195.43 0 .35-1.464 1.815-1.464 1.464-1.796 1.464zm5.3-5.3q-.215 0-.43-.176-3.494-3.065-7.252-4.617-3.758-1.552-8.208-1.552-4.45 0-8.208 1.552-3.758 1.552-7.252 4.617-.215.176-.43.176-.332 0-1.806-1.464-1.474-1.464-1.474-1.815 0-.254.195-.45 3.65-3.63 8.687-5.622 5.036-2 10.287-2 5.25 0 10.287 2 5.036 2 8.687 5.622.195.195.195.45 0 .35-1.474 1.815-1.474 1.464-1.806 1.464zm-711.2 84.314h16.414v-6.155q0-3.398-2.404-5.803-2.404-2.404-5.803-2.404-3.398 0-5.803 2.404-2.404 2.404-2.404 5.803zm26.672 3.078V262q0 1.282-.898 2.18-.898.898-2.18.898h-30.776q-1.282 0-2.18-.898-.898-.898-.898-2.18v-18.465q0-1.282.898-2.18.898-.898 2.18-.898h1.026v-6.155q0-5.9 4.232-10.13 4.232-4.232 10.13-4.232 5.9 0 10.13 4.232 4.232 4.232 4.232 10.13v6.155h1.026q1.282 0 2.18.898.898.898.898 2.18z"/><text letter-spacing="0" y="172.079" x="4028.871" xml:space="preserve" class="L M N"><tspan y="172.079" x="4028.871" class="O P">8:00</tspan></text><path d="M4437.795 1771.316c-15.28 0-27.656 12.383-27.656 27.656 0 12.222 7.923 22.586 18.9 26.24 1.383.26 1.9-.595 1.9-1.33l-.035-4.702c-7.693 1.668-9.315-3.7-9.315-3.7-1.258-3.192-3.077-4.045-3.077-4.045-2.505-1.715.194-1.68.194-1.68 2.777.193 4.236 2.848 4.236 2.848 2.466 4.23 6.474 3.008 8.055 2.3.25-1.8.96-3.008 1.752-3.7-6.142-.7-12.597-3.07-12.597-13.667 0-3.02 1.072-5.485 2.846-7.42-.3-.698-1.245-3.5.242-7.32 0 0 2.316-.742 7.605 2.835 2.212-.615 4.563-.92 6.914-.933 2.35.015 4.702.318 6.914.933 5.255-3.577 7.57-2.835 7.57-2.835 1.487 3.8.553 6.62.277 7.32 1.763 1.936 2.835 4.402 2.835 7.42 0 10.624-6.465 12.964-12.618 13.644.968.83 1.867 2.526 1.867 5.116l-.035 7.573c0 .726.484 1.6 1.9 1.314 11.065-3.627 18.98-13.998 18.98-26.202 0-15.273-12.383-27.656-27.656-27.656m383-1529.9c3.036 0 5.502-2.463 5.502-5.502s-2.466-5.502-5.502-5.502a5.502 5.502 0 1 0 0 11.003m0 5.502a5.501 5.501 0 1 0 0 11.001c3.036 0 5.502-2.46 5.502-5.5s-2.466-5.502-5.502-5.502m0 16.503c-3.04 0-5.502 2.466-5.502 5.502a5.5 5.5 0 0 0 5.502 5.502c3.036 0 5.502-2.46 5.502-5.502 0-3.036-2.466-5.502-5.502-5.502"/><path d="M4838.897 321.6H4024.33" fill="#f9f9f9" stroke="#4d4d4d" stroke-width=".719"/><g transform="matrix(2.771727 0 0 2.771727 -419.10075 -251.4493)" stroke="#000" fill="none"><g stroke-width=".189" class="K"><path d="M510.03 380.756l-.842.07m0-.001l1.648 1.054m-1.648-1.054l.788 1.215m-1.648-.975l1.648.975-.853.343m0 0l1.65 1.053m-1.65-1.053l.78 1.477m-1.753-1.045l1.754 1.045-1 .503m-9.8 5.46l-1.72 1.007m1.73-1.006l-2.313-.7m0 .001l.594 1.706-2.34-.625"/><path d="M496.802 389.125l-1.745 1.08m0 .001l.567 1.674m1.178-2.755l-2.34-.547m0 0l.595 1.628m-.595-1.628l-1.757 1.158m0 0l2.352.47-1.788 1.127m-.564-1.597l.564 1.597-2.343-.37"/><path d="M492.705 389.736l-1.78 1.228m1.195-2.784l.586 1.555-2.372-.402m-.001.001l.593 1.63m-.593-1.63l-1.767 1.3m0 .001l2.36.33m-1.756 1.377l1.755-1.378.574 1.674m-2.933-2.003l.605 1.707-2.335-.264"/><path d="M488.566 390.635l-1.73 1.443m1.1-3.094l.62 1.65-2.363-.285m0 .001l.633 1.728-2.33-.23"/><path d="M486.203 390.35l-1.697 1.498m-.656-1.74l.657 1.74-2.3-.196m-.01 0l.677 1.816m-.677-1.816l-1.58 1.656-.698-1.816m-2.232-.124l-1.452 1.697-.722-1.782m0 0l-1.38 1.702m1.38-1.702l-2.105-.048m0 0l-2.023-.01m3.423-1.625l-1.4 1.625-.7-1.63m-.001.01l-1.323 1.62m1.323-1.62l-2.013.044m0 0l.7 1.575-1.93.028"/><path d="M470.694 389.65l-1.24 1.603-.672-1.5"/><path d="M470.694 389.65l-1.913.093m3.252-1.633l-1.34 1.54-.658-1.433"/><path d="M470.036 388.217l-1.255 1.526"/><path d="M470.036 388.217l-1.9.167m-.001 0l.636 1.36m-.636-1.36l-1.166 1.5"/><path d="M466.358 388.625l.62 1.258 1.802-.14-1.154 1.576m.52-2.935l-1.787.24m3.05-1.692l-1.262 1.452-.533-1.282m0 0l-1.254 1.523m1.252-1.523l-1.75.32m-.002.001l.497 1.202m-1.727.4l1.728-.4-1.15 1.576m.652-2.778l-1.23 1.602-.45-1.124m1.68-.478l-1.68.478m3.018-2.015l-1.337 1.537-.37-1.14"/><path d="M465.5 386.284l-1.3 1.617-.318-1.067"/><path d="M465.5 386.284l-1.63.55m1.388-1.62l-1.386 1.62-.187-1.002m0 0l-1.34 1.705m1.33-1.705l-1.465.765 1.412-1.7m.08-.857l-1.332.87 1.543-1.65m0-.002l-1.262.9m1.262-.9l.343-.698m0 0l.47-.613m.838-.212l-1.308.825 1.705-1.47m-.001 0l-1.234.858m1.234-.858l.52-.55"/><path d="M466.48 380.54l-1.754 1.407.597-.523 1.157-.884.64-.448 1.18-.805 1.86-1.098 2.027-1.018 1.353-.597.766-.296 1.425-.55 2.263-.7 2.32-.57 1.605-.3.76-.116 1.646-.24 2.428-.204 2.434-.054 1.716.047.708.052 1.57.117 2.286.303 2.28.44 2.253.584 2.2.73 1.4.544 2.08.93 1.984 1.07"/><path d="M467.74 379.763l-1.26.777 1.82-1.253m39.372-.943l-.742-.36"/><path d="M506.93 377.983l1.905 1.103"/><path d="M506.93 377.983l1.142.82m0 0l1.035.926m-2.963-1.933l1.928 1.007-.805-.106"/><path d="M507.267 378.697l1.84 1.032"/><path d="M507.267 378.697l1.016 1.012m0 .001l.824.02.923 1.027-1.747-1.047"/><path d="M507.267 378.697l-.832.064m0-.001l1.848.948"/><path d="M506.435 378.76l1 1.098m.001.002l.847-.15.905 1.116m-1.752-.966l1.752.966-.86.24"/><path d="M507.436 379.86l.892 1.206m-2.738-2.08l1.847.872-.855.312"/><path d="M506.58 380.17l1.747.894m-1.747-.894l.787 1.245m.001.001l.96-.35.795 1.318m-1.755-.968l1.755.967-.973.432"/><path d="M507.368 381.416l.782 1.4m-2.632-2.276l1.85.875-1.073.45"/><path d="M506.295 381.865l1.855.95m-1.855-.95l.768 1.47m0-.001l1.087-.52.763 1.548m-1.85-1.028l1.85 1.03-1.106.58"/><path d="M507.063 383.334l.744 1.608m-2.693-2.532l1.95.925-1.197.604m-.001-.001l1.94 1.004-1.215.653m-.725-1.657l.726 1.657m0 0l1.922 1.087m-1.922-1.087l.687 1.777-2.006-1.055"/><path d="M504.567 384.623l2.025.972-1.32.722m.001 0l.667 1.803-2.082-1.014m0 0l.646 1.816-2.15-.966"/><path d="M503.858 387.106l-1.503.85m0 0l.625 1.818m-.625-1.818l-1.584.908m.93-2.642l.665 1.734-2.227-.828m-.01 0l.643 1.736m-.643-1.736l-1.632.97m0-.001l2.275.767-1.656.96-.62-1.727m1.633-.97l-2.28-.687m-.001-.001l.65 1.656m-.65-1.656l-1.667 1.037m0 .001l2.316.62-1.694 1.028-.622-1.647m1.667-1.04l-2.313-.545m0 .001l.646 1.582m-.646-1.582l-1.7 1.108m.001 0l2.335.474-1.718 1.1m-.617-1.574l.617 1.574-2.343-.397"/><path d="M493.845 387.004l-1.726 1.177m1.08-2.7l.635 1.512-2.33-.33m.01.001l.605 1.506m-.605-1.506l-1.792 1.083m0 0l2.397.423-1.786 1.153m-.6-1.576l.6 1.576-2.387-.35"/><path d="M489.722 387.758l-1.776 1.226m1.15-2.74l.626 1.515-2.4-.36m.001 0l.633 1.586m-.633-1.586l-1.753 1.3"/><path d="M485.56 388.688l2.386.296-1.743 1.366m-.643-1.662l.643 1.662-2.354-.242"/><path d="M485.56 388.688l-1.7 1.42m1.06-3.008l.65 1.587-2.372-.242m0 .001l.66 1.662m-.66-1.662l-1.668 1.466m0 0l2.33.196-1.653 1.544m-.677-1.74l.676 1.74-2.277-.16m1.59-1.58l-1.6 1.58m.925-3.23l.675 1.65-2.293-.148m0 0l.692 1.728m-.692-1.728l-1.54 1.604"/><path d="M477.686 391.368l2.233.124-1.52 1.68-.714-1.805m1.542-1.603l-2.24-.1m-.001-.001l.7 1.705-2.174-.085"/><path d="M476.986 389.663l-1.474 1.62-.704-1.673"/><path d="M476.986 389.663l-2.178-.053m3.736-1.475l-1.558 1.528-.687-1.596"/><path d="M476.3 388.067l-1.5 1.543"/><path d="M476.3 388.067l-2.174-.01m-.001.001l.683 1.552-2.1-.004"/><path d="M474.125 388.058l-1.418 1.548-.674-1.497"/><path d="M474.125 388.058l-2.092.05m3.594-1.518l-1.502 1.467-.664-1.42"/><path d="M473.46 386.637l-1.428 1.472"/><path d="M473.46 386.637l-2.078.113m.001 0l.65 1.36-1.997.108"/><path d="M471.383 386.75l-1.347 1.467-.63-1.285"/><path d="M471.383 386.75l-1.976.182m3.4-1.582l-1.434 1.4-.624-1.214"/><path d="M470.76 385.536l-1.352 1.396"/><path d="M470.76 385.536l-1.798.102m-.002 0l.446 1.294-1.795.17"/><path d="M468.96 385.638l-1.35 1.464-.414-1.216"/><path d="M468.96 385.638l-1.763.248m3.203-1.644l-1.438 1.396-.33-1.217"/><path d="M468.63 384.42l-1.432 1.465"/><path d="M468.63 384.42l-1.723.323m0 .001l.3 1.142-1.707.398"/><path d="M466.907 384.744l-1.416 1.54-.243-1.07"/><path d="M466.907 384.744l-1.66.47m3.168-1.926l-1.508 1.456-.17-1.062"/><path d="M466.738 383.682l-1.5 1.532"/><path d="M466.738 383.682l-1.604.537m0 .001l.114.995-1.573.618"/><path d="M465.134 384.22l-1.46 1.613-.053-.934"/><path d="M465.134 384.22l-1.512.68m3.072-2.194l-1.56 1.513.015-.915"/><path d="M465.15 383.304l-1.527 1.594"/><path d="M465.15 383.304l-1.447.735m-.001.001l-.08.86-1.4.82 1.48-1.68m1.448-.736l.144-.83m-.001 0l-1.6 1.565.2-.78m1.4-.785l-1.38.784 1.65-1.523m-.27.74l.27-.74m1.2.086l-1.48.653 1.682-1.44m0 0l-1.4.702"/><path d="M466.975 381.033l.323-.687m0 0l-1.734 1.4.397-.646"/><path d="M467.298 380.346l-1.337.743 1.78-1.326m-.443.583l.443-.583m.987-.043l-1.43.626 1.797-1.25m0-.001l-1.354.668"/><path d="M469.095 379.095l.478-.512m0 0l-1.832 1.18.56-.476 1.273-.704m-.001 0l.587-.394 1.275-.637m-.503.432l-1.36.6 1.862-1.03m.001-.002l.752-.38m31.423-.83l1.314.667m-.001-.01l.765.264 1.242.7m-2.007-.963l2.007.973-.786-.187"/><path d="M504.923 377l1.22.786m-3.313-1.618l2.092.842-.798-.1"/><path d="M504.125 376.9l2.02.886"/><path d="M504.125 376.9l1.204.866m.001.01l.815.02 1.123.9-1.938-.92"/><path d="M504.125 376.9l-.818.06m0 .01l2.022.807"/><path d="M503.307 376.97l1.2.948m-.001-.001l.833-.14 1.106.985m-1.94-.845l1.94.844-.846.226m-1.103-1.07l1.093 1.07m-3.1-1.807l2.016.738-.838.293"/><path d="M503.658 378.2l1.93.777"/><path d="M503.658 378.2l1.086 1.153m0 .01l.845-.376.992 1.184m-1.837-.808l1.837.808-1.063.37m-.774-1.178l.774 1.178"/><path d="M502.826 378.645l1.918.718-1.16.397m0 0l1.934.78"/><path d="M503.584 379.76l.766 1.256m0 0l1.168-.475.777 1.324m-1.945-.85l1.945.85-1.18.544m-.765-1.394l.764 1.393"/><path d="M502.327 380.27l2.023.746-1.268.577m0 0l2.032.816"/><path d="M503.082 381.593l.75 1.453m0 0l1.282-.637.752 1.53m-2.034-.893l2.034.892-1.3.685m-.734-1.577l.735 1.577m-2.844-2.353l2.1.775-1.375.726m-.001.001l2.1.85"/><path d="M502.457 383.772l.715 1.614m0 0l1.395-.763.706 1.694m-2.1-.93l2.1.93-1.415.8m-.685-1.72l.686 1.72-2.168-.884"/><path d="M500.995 384.583l2.177.803-1.482.836m-.695-1.64l.695 1.64m-.695-1.64l-1.54.9m0 .001l2.235.748-1.562.906-.673-1.654m1.54-.9l-2.234-.672m-.001-.001l.694 1.563m-.694-1.563l-1.585.952m.001.001l2.28.6-1.608.967-.67-1.578m1.582-.952l-2.27-.54m.01 0l.686 1.493m-.686-1.493l-1.618 1.018m-.01 0l2.304.475-1.642 1.033m-.662-1.508l.662 1.508-2.324-.404"/><path d="M494.872 384.388l-1.662 1.104m.987-2.532l.675 1.427-2.312-.34m0 .003l.65 1.443m-.65-1.443l-1.667 1.178m0-.001l2.317.265-1.696 1.183m-.62-1.448l.62 1.448-2.418-.432"/><path d="M490.893 385.227l-1.797 1.016m1.164-2.4l.634 1.384-2.435-.43m-.001 0l.638 1.446m-.638-1.446l-1.788 1.087m0 0l2.426.36-1.783 1.155m-.643-1.515l.643 1.514-2.404-.297"/><path d="M486.67 385.884l-1.76 1.217m1.1-2.65l.65 1.434-2.416-.285m0 .001l.655 1.502m-.655-1.502l-1.73 1.273m0-.001l2.385.23-1.72 1.345m-.665-1.575l.664 1.574-2.343-.184"/><path d="M482.524 386.872l-1.68 1.4m1.016-2.88l.664 1.48-2.35-.163m-.001.001l.672 1.553m-.672-1.553l-1.63 1.426"/><path d="M478.544 388.135l2.3.127-1.618 1.502-.683-1.63m1.63-1.424l-2.304-.093m.001-.001l.675 1.52-2.245-.068"/><path d="M477.87 386.616l-1.57 1.45-.672-1.476"/><path d="M477.87 386.616l-2.242-.025m3.877-1.328l-1.636 1.353-.665-1.403"/><path d="M477.204 385.213l-1.577 1.378"/><path d="M477.204 385.213l-2.234.03m0-.001l.657 1.35-2.166.046"/><path d="M474.97 385.242l-1.5 1.395-.644-1.287"/><path d="M474.97 385.242l-2.153.108m3.733-1.42l-1.58 1.3-.642-1.22"/><path d="M474.328 384.023l-1.5 1.327"/><path d="M474.328 384.023l-2.135.18m0 0l.624 1.147-2.058.186"/><path d="M472.193 384.203l-1.434 1.333-.36-1.294"/><path d="M472.193 384.203l-1.794.04m3.304-1.306l-1.5 1.266-.278-1.283"/><path d="M471.915 382.92l-1.516 1.322"/><path d="M471.915 382.92l-1.768.115m0 0l.252 1.207-1.77.18"/><path d="M470.147 383.035l-1.517 1.386-.215-1.133"/><path d="M470.147 383.035l-1.732.253m3.322-1.554l-1.6 1.3-.142-1.112"/><path d="M470.005 381.923l-1.6 1.365"/><path d="M470.005 381.923l-1.687.323m0 0l.097 1.042-1.677.394"/><path d="M468.318 382.246l-1.58 1.436-.044-.976"/><path d="M468.318 382.246l-1.624.46m3.278-1.796l-1.654 1.335.02-.946"/><path d="M468.338 381.3l-1.644 1.406"/><path d="M468.338 381.3l-1.565.52m0 0l-.08.885-1.545.598 1.624-1.483"/><path d="M468.338 381.3l.137-.843m0 0l-1.702 1.364.202-.788"/><path d="M468.475 380.457l-1.5.576 1.753-1.313m-.253.737l.253-.737m1.322.287l-1.575.45 1.762-1.243m0 0l-1.5.506"/><path d="M470.237 379.214l.295-.675m0 .001l-1.804 1.18.367-.625"/><path d="M470.532 378.54l-1.437.556 1.837-1.1m-.4.554l.4-.555m1.1.112l-1.5.442 1.837-1.05m.001.001l-1.437.494m1.437-.494l.423-.477m-.001-.01l-1.86.97.503-.432m1.357-.538l-1.357.54 2.105-.978"/><path d="M472.792 377.013l.748-.44m.683.002l-1.43.438 2.178-.93"/><path d="M474.97 376.084l-1.43.5 2.2-.846"/><path d="M474.97 376.084l.76-.356 1.496-.435M494.72 374l.747.035 1.524.345m.001.02l.756.095 1.494.418"/><path d="M496.992 374.4l2.25.513m0-.01l.76.166 1.452.484"/><path d="M499.242 374.903l2.2.65"/><path d="M498.463 374.878l.78.025 1.43.555m-.001 0l.78.095"/><path d="M500.672 375.458l2.16.7"/><path d="M502.83 376.168l-1.378-.615m1.378.615l.778.175-2.156-.8.757.246m-1.537-.33l1.358.7m0-.01l.8.02 1.294.742-2.095-.762"/><path d="M498.463 374.878l2.2.58-.798.05m-.001.002l2.156.64"/><path d="M499.874 375.5l1.342.768m0-.001l.814-.13 1.277.82m-2.1-.7l2.1.692-.827.2m-1.264-.872l1.264.902m-3.4-1.48l2.147.576-.818.272m-.001.002l2.082.63m-2.092-.63l1.255.984m0-.001l.827-.354 1.178 1.03m-2.005-.676l2.005.677-.832.435m-1.173-1.112l1.173 1.112m-3.242-1.688l2.07.576-.818.487m-.001 0l2 .625m-2-.625l.74 1.058m0 0l1.25-.433.758 1.115m-2.008-.682l2 .682-1.257.5"/><path d="M501.575 379.078l.752 1.192m-2.824-1.772l2.072.58-1.337.553m0-.001l2.1.64m-2.1-.64l.743 1.26m-.001.01l1.346-.62.755 1.323m-2.1-.703l2.1.703-1.36.678"/><path d="M500.98 380.9l.742 1.38m-2.9-1.98l2.158.6-1.428.726"/><path d="M499.553 381.616l2.17.655m-2.17-.655l.727 1.43m0-.001l1.443-.774.734 1.5m-2.177-.726l2.177.727-1.462.8-.715-1.538m-.727-1.428l-1.5.828m0 0l2.227.6-1.52.866-.708-1.467m.77-2.143l.73 1.316-2.215-.535m0-.001l.715 1.363m-.715-1.363l-1.545.9m0 0l2.26.474-1.563.926m-.697-1.4l.697 1.4-2.293-.4"/><path d="M495.793 381.97l-1.596 1m.896-2.293l.7 1.303-2.278-.35m0 0l.682 1.34m-.682-1.34l-1.615 1.06m0 .002l2.297.28-1.637 1.088m-.66-1.368l.66 1.367-2.3-.206m1.64-1.17l-1.64 1.16m.974-2.445l.666 1.285-2.285-.152m0 0l.644 1.313m-.644-1.313l-1.804.896m-.001 0l2.448.417-1.8.954m-.648-1.37l.647 1.37-2.438-.347m1.78-1.024l-1.8 1.024m1.138-2.313l.653 1.3-2.446-.324m0-.001l.655 1.348m-.655-1.348l-1.77 1.086m0 0l2.425.262-1.766 1.15m-.66-1.412l.66 1.4-2.394-.207"/><path d="M483.595 384.188l-1.735 1.204m1.076-2.518l.66 1.314-2.397-.174m-.001 0l.662 1.378m-.662-1.378l-1.693 1.25"/><path d="M479.505 385.263l2.355.13-1.687 1.317-.668-1.446m1.693-1.25l-2.353-.086m0 0l.66 1.335-2.3-.05"/><path d="M478.845 383.928l-1.64 1.285-.654-1.282"/><path d="M478.845 383.928l-2.295.003m4-1.188l-1.695 1.185-.653-1.218"/><path d="M478.192 382.7l-1.642 1.22"/><path d="M478.192 382.7l-2.283.065m.001.01l.64 1.156-2.222.092m1.572-1.248l-1.58 1.248-.625-1.086m2.205-.162l-2.206.162m3.846-1.325l-1.64 1.163-.628-1.028"/><path d="M475.28 381.747l-1.578 1.2m1.578-1.2l-1.78-.07m0 0l.202 1.26-1.788-.017"/><path d="M473.5 381.677l-1.586 1.243-.178-1.186"/><path d="M473.5 381.677l-1.764.057m3.412-1.214l-1.647 1.158-.1-1.154"/><path d="M473.4 380.523l-1.654 1.2"/><path d="M473.4 380.523l-1.73.13m0 0l.076 1.08-1.732.2m1.646-1.28l-1.656 1.27-.033-1.012m1.69-.258l-1.7.258m3.404-1.427l-1.713 1.17.027-.97"/><path d="M471.688 379.683l-1.716 1.228"/><path d="M471.688 379.683l-1.638.324m0 0l-.078.904-1.634.4 1.712-1.293m1.638-.325l.127-.854m0 .001l-1.765 1.178.187-.793m1.578-.385l-1.578.385 1.806-1.117m-.228.732l.228-.732m1.407.466l-1.635.265 1.803-1.06m0 .001l-1.575.328m1.575-.328l.258-.664m0-.001l-1.833.992.326-.607m1.507-.385l-1.507.385 1.854-.915m-.347.53l.347-.53m1.22.255l-1.568.275 1.846-.865m0 0l-1.5.335m1.5-.345l.746-.537m0 0l-2.245.872.747-.5"/><path d="M476.468 375.703l-1.498.38 2.257-.8m-.76.4l.76-.4m.8.127l-1.56.272 2.317-.73m0 .001l-1.558.32"/><path d="M478.785 374.973l.763-.33m0 0l-2.32.65.767-.275 1.554-.375m-.001 0l.767-.194m.842-.06l-1.6.254 2.372-.503m.001-.001l2.407-.356m-.757.17l.756-.17 1.683-.1m-.01-.01l.745-.094 1.705-.034m-2.46.13l2.45-.128m.01 0l.73-.02"/><path d="M488.46 373.546l2.445.027"/><path d="M487.72 373.688l.74-.142 1.72.092m0 0l.724-.065"/><path d="M490.18 373.638l2.265.124m.001 0l-1.54-.2 2.277.17m-.737.02l.736-.02 1.54.268m-2.276-.248l2.275.248m-3.02-.107l.747-.14 1.515.342m-.002-.001l.76-.094m-.76.094l2.26.324"/><path d="M496.22 374.428l-1.5-.418 2.27.38m-.77.038l.77-.038 1.47.488"/><path d="M496.22 374.428l2.242.45"/><path d="M495.442 374.598l.78-.17 1.453.564m-.001 0l.8-.114 1.4.63m-2.2-.516l2.2.517-.805.192"/><path d="M497.674 374.992l1.395.7m-3.627-1.104l2.232.394-.795.25m.001.008l2.2.46"/><path d="M496.88 375.24l1.384.788m-.001.002l.806-.328 1.33.848m-2.136-.52l2.135.52-.814.408"/><path d="M498.263 376.03l1.32.928m-3.496-1.34l2.176.4-.8.456"/><path d="M497.464 376.485l2.12.472"/><path d="M497.464 376.485l1.32 1.007m-.001 0l.8-.535 1.25 1.063m-2.05-.528l2.052.528-1.332.478m-.72-1.006l.72 1.006"/><path d="M496.677 377.063l2.106.43-1.404.53m.001-.003l2.124.477"/><path d="M497.38 378.02l.717 1.08m-.001 0l1.407-.603.735 1.133m-2.142-.53l2.142.53-1.415.67m-.727-1.2l.727 1.2m-2.9-1.62l2.183.42-1.473.724m0 .001l2.2.475-1.485.78m-.715-1.255l.715 1.256-2.245-.414m1.52-.842l-1.53.842m.82-1.987l.7 1.144-2.23-.36m.01.002l.7 1.2m-.7-1.2l-1.563.908m0 0l2.263.293-1.578.954m-.685-1.247l.685 1.247-2.28-.224"/><path d="M492.83 380.374l-1.596 1.023m.913-2.174l.683 1.15-2.265-.175m0 .002l.67 1.198m-.67-1.198l-1.6 1.095m-.001-.001l2.27.103-1.62 1.133m-.65-1.236l.65 1.236-2.457-.393"/><path d="M488.964 381.294l-1.806.843m1.142-1.997l.654 1.153-2.462-.358m.01.001l.656 1.2m-.656-1.2l-1.795.9m0 .001l2.45.3-1.793.965m-.657-1.265l.658 1.255-2.43-.228"/><path d="M484.707 381.847l-1.77 1.027"/><path d="M484.05 380.7l.656 1.157-2.43-.184m.002-.01l.658 1.2m-.658-1.2l-1.738 1.08m0 0l2.396.13-1.738 1.14-.658-1.27"/><path d="M482.278 381.663l-2.4-.08m-.001.001l.653 1.16-2.348-.033"/><path d="M479.887 381.584l-1.695 1.126-.642-1.098"/><path d="M479.887 381.584l-2.337.028m4.076-1.055l-1.74 1.027-.644-1.044"/><path d="M479.243 380.54l-1.693 1.072"/><path d="M479.243 380.54l-2.324.096m.001 0l.63.976-2.27.135"/><path d="M476.92 380.636l-1.638 1.1-.133-1.228"/><path d="M476.92 380.636l-1.77-.117m3.45-.907l-1.7 1.024-.072-1.185"/><path d="M476.847 379.45l-1.7 1.068m1.7-1.068l-1.75-.043m.001.001l.05 1.1-1.757.004"/><path d="M475.098 379.408l-1.707 1.115-.017-1.04"/><path d="M475.098 379.408l-1.724.076m3.474-1.084l-1.75 1.018.033-1m-.001 0l-1.757 1.066m1.757-1.066l-1.68.146m0 0l-.076.92-1.686.2 1.762-1.12m1.68-.146l.116-.86m.001-.001l-1.797 1.007.168-.795m1.63-.212l-1.63.212 1.826-.94m-.196.728l.197-.727m1.476.63l-1.674.098 1.818-.893m.001-.001l-1.62.166m1.62-.166l.216-.654m-.001-.01l-1.837.82.278-.6m1.558-.22l-1.56.23 2.306-.8m-.746.58l.747-.58m.867.467l-1.613.123 2.36-.74m.001 0l-1.614.162m1.614-.162l.755-.5m0-.002l-2.37.663.757-.458m1.613-.215l-1.612.205 2.372-.584m-.76.38l.76-.38m.897.288l-1.657.092 2.415-.514m0 0l-1.655.135m1.655-.135l.76-.3m-.002.001l-2.414.434.763-.25 1.65-.185"/><path d="M482.812 374.254l2.446-.36"/><path d="M485.258 373.894l-1.687.06 2.44-.28m-.753.22l.752-.22 1.7.014m-2.452.206l2.462-.206m-3.217.548l.755-.342 1.715.056m0 0l.747-.262"/><path d="M486.973 373.95l2.473-.13m0 0l-1.726-.133 2.46-.05m-.734.183l.735-.183 1.518.265m-2.253-.082l2.253.082"/><path d="M488.703 374.12l.743-.3 1.498.344m0 .001l.755-.262"/><path d="M490.944 374.165l2.25.158m.001 0l-1.496-.42 2.262.2m-.766.22l.766-.22 1.48.494m-2.246-.274l2.247.275m-3.016.067l.77-.342 1.466.573m-.002 0l.78-.298 1.437.643m-2.217-.345l2.218.345-.792.377m-1.426-.722l1.426.722m-3.66-.953l2.235.23-.78.42m-.001.002l2.206.3"/><path d="M493.88 375.317l1.42.8m.002.001l.785-.5 1.377.867m-2.162-.367l2.162.367-.787.578m-1.375-.945l1.375.945m-3.567-1.206l2.193.26-.773.617m0 .001l2.148.328m-2.148-.328l.684.915m-.001 0l1.464-.587.702.958m-2.166-.37l2.166.37-1.466.66m-.7-1.03l.7 1.03m-2.896-1.295l2.196.265-1.513.72m0 0l2.213.3-1.52.785m-.693-1.085l.693 1.095-2.246-.243"/><path d="M493.7 378.37l-1.553.852m.87-1.837l.683.986-2.23-.198m0 0l.677 1.05m-.677-1.05l-1.573.92m0 0l2.25.13-1.582.976m-.668-1.106l.668 1.106-2.255-.058"/><path d="M489.897 379.093l-1.587 1.048"/><path d="M489.234 378.085l.663 1.008-2.24-.017m-.001 0l.654 1.065m-.654-1.065l-1.8.75m-.01.001l2.464.314-1.808.795m-.656-1.1l.656 1.1-2.45-.246"/><path d="M485.846 379.827l-1.795.863m1.142-1.875l.653 1.012-2.45-.194m.001 0l.654 1.057m-.654-1.057l-1.77.924"/><path d="M481.626 380.557l2.425.133-1.773.973-.652-1.106m1.77-.924l-2.417-.07m0-.001l.646.995-2.383-.017"/><path d="M480.98 379.562l-1.737.978-.633-.928"/><path d="M480.98 379.562l-2.37.05m4.14-.93l-1.77.88-.636-.884"/><path d="M480.344 378.678l-1.734.934m1.734-.934l-1.755-.2m.001 0v1.134l-1.763-.16"/><path d="M478.6 378.478l-1.742.973.001-1.06"/><path d="M478.6 378.478l-1.74-.088m3.513-.788l-1.774.876.04-1.003m-.01 0l-1.78.915m1.78-.915l-1.708-.016m-.002.001l-.073.93-1.717.028 1.8-.96m1.7.017l.103-.866m-.001.001l-1.8.85.144-.795m1.666-.055l-1.667.055 1.83-.777m-.163.722l.162-.722m1.54.776l-1.7-.055 1.82-.74m0 .001l-1.66.017m1.66-.017l.747-.653m0 0l-2.406.67.748-.618m1.647-.052l-1.658.052 2.412-.593m-.754.54l.754-.54m.94.597l-1.695-.057 2.448-.52m0 0l-1.694-.02m1.694.02l.755-.46m0-.001l-2.45.44.758-.422 1.7-.018m-.762.462l2.473-.366m-.001-.001l-1.718-.095 2.47-.286m-.752.38l.752-.38 1.73.17m-2.482.2l2.482-.2m-3.234.7l.753-.498 1.735.206m0 .01l.747-.416m-.747.416l2.23.01"/><path d="M490.187 374.546l-1.484-.425 2.24.044m-.756.38l.757-.38 1.482.5m-2.24-.12l2.24.12m-2.996.378l.757-.497 1.472.58m.001 0l.767-.46 1.455.652m-2.222-.192l2.222.2-.772.54m-1.45-.73l1.45.73m-3.68-.813l2.23.083-.76.576m-.002 0l2.2.155"/><path d="M490.898 375.702l1.45.808m.002-.01l.76-.653 1.42.878m-2.18-.225l2.18.225-1.512.65m-.668-.875l.668.875m-2.87-.985l2.2.12-1.547.718m.001 0l2.215.157-1.547.788m-.668-.945l.668.945-2.236-.088"/><path d="M490.802 377.228l-1.568.857m.914-1.695l.654.84-2.223-.05m.001-.003l.655.908m-.655-.908l-1.575.928m-.001 0l2.23-.02-1.578 1m-.652-.97l.652.97-2.463-.26"/><path d="M487.004 378.105l-1.8.7m1.166-1.572l.645.872-2.457-.2m-.001 0l.646.9m-.646-.9l-1.796.777m-.01 0l2.442.133-1.796.818-.646-.95m1.797-.778l-2.434-.066m0 .001l.638.843-2.407-.004"/><path d="M482.113 377.84l-1.77.84.02-1.076"/><path d="M482.113 377.84l-1.75-.237m3.547-.503l-1.796.74.05-1m-.002-.002l-1.8.774m1.8-.774l-1.73-.164m.001 0l-.07.938-1.734-.127 1.804-.8m1.73.163l.088-.867m0-.001l-1.817.703.12-.794m1.697.1l-1.697-.1 2.442-.596m-.745.686l.745-.687m.98.887l-1.726-.198 2.47-.522m0 0l-1.724-.165m1.724.165l.75-.6m-.002-.01l-2.473.445.753-.577 1.72.132"/><path d="M484.72 375.44l2.5-.37m-.002-.002l-1.74-.24 2.488-.292m-.748.532l.748-.53 1.474.506m-2.222.024l2.222-.025"/><path d="M486.462 375.7l.746-.642 1.47.586m.002.01l.75-.6 1.468.66m-2.218-.05l2.22.048-.75.687"/><path d="M488.68 375.654l1.47.735m-3.688-.7l2.217-.056-.744.72m0 .01l2.213.016-1.57.788m-.643-.804l.644.804-2.22.056"/><path d="M487.935 376.373l-1.576.86m.103-1.533l1.473.663-2.212.1m0 .01l.636.77m-.636-.77l-1.814.638m.001 0l2.45.133-1.812.672-.638-.805m2.552-1.4l-.74.752-1.747-.303"/><path d="M483.976 376.16l-.067.94-1.747-.272 1.814-.67m2.486-.458l-2.486.45.743-.72 1.743.27m412.314-121.708l-.356-.06"/><path d="M898.42 253.932l1.287.943"/><path d="M898.42 253.932l.912.963"/><path d="M898.04 254.02l1.293.874-.38.18m-.003.001l1.288.943"/><path d="M898.95 255.075l.884 1.194m-1.37-.937l1.372.937-.5.32m-6.33 4l-1.24.786m1.24-.786l-1.864-.635m0-.001l.624 1.42-1.893-.57m1.257-.85l-1.27.85m0 .001l.6 1.398m.68-2.25l-1.9-.5m0-.001l.632 1.352m-.632-1.352l-1.287.92m-.001 0l1.92.432-1.327.898m-.593-1.33l.592 1.33-1.92-.343m1.318-.986l-1.327.987m.695-2.274l.63 1.287-1.96-.366m.003 0l.632 1.353m-.632-1.353l-1.326 1.052m0 .001l1.958.3m-1.315 1.12l1.325-1.12.593 1.398m-2.56-1.698l.633 1.422-1.948-.242"/><path d="M884.657 261.06l-1.315 1.18m.648-2.548l.668 1.367-1.985-.256m-.001 0l.67 1.436-1.966-.206"/><path d="M882.672 260.803l-1.296 1.23m-.704-1.44l.704 1.44-1.974-.168m0 .001l.7 1.5m-.7-1.5l-1.23 1.377-.74-1.506m-1.956-.1l-1.144 1.42-.786-1.47m0-.001l-1.092 1.427"/><path d="M873.546 261.595l-1.895-.01m-.001 0l-1.847.03m2.947-1.388l-1.1 1.358-.804-1.327m.001 0l-1.043 1.356m1.043-1.356l-1.85.08m0 0l.807 1.276-1.8.07"/><path d="M868.997 260.338l-.983 1.346-.804-1.218"/><path d="M868.997 260.338l-1.787.128m2.834-1.416l-1.047 1.287-.8-1.15"/><path d="M868.197 259.2l-.987 1.277"/><path d="M868.197 259.2l-1.778.195m.001-.001l.8 1.082m-.8-1.082l-.923 1.258m-.787-.992l.785.993 1.714-.176-.92 1.327m.13-2.4l-1.708.265m2.695-1.477l-.988 1.212-.722-1m0-.001l-.986 1.276m.987-1.306l-1.684.335m0 0l.698.94m-1.673.406l1.673-.405-.915 1.326m.217-2.267l-.975 1.346-.664-.872m1.64-.474l-1.64.474m2.687-1.757l-1.047 1.283-.607-.88m0-.001l-1.032 1.355-.567-.818m1.598-.537l-1.6.537m1.087-1.364l-1.086 1.354-.466-.76m-.001.01l-1.055 1.43"/><path d="M861.34 257.605l-1.47.725 1.105-1.42m-.26-.63l-1.353.813 1.198-1.373m0 0l-1.3.846m1.3-.846l-.05-.488m-.01-.002l.057-.413m1.275-.357l-1.322.77 1.3-1.2m0 0l-1.254.798m1.254-.798l.1-.356m-.01 0l-1.344 1.154.16-.336m1.184-.828l-1.183.818 1.374-1.1m-.2.272l.2-.27m1.08-.458l-1.27.728 1.386-1.02"/><path d="M863.297 252.645l-1.195.748m1.195-.748l.213-.197m34.235.752l-1.45-.926-1.2-.695-1.607-.8-1.345-.56-.332-.132-1.4-.515-1.782-.532-1.818-.42-1.526-.28-1.86-.243-1.86-.132-1.64-.026-1.935.057-1.62.15-.306.037-1.593.215-1.867.38-1.517.38-1.77.555-1.407.53-1.643.7-1.572.816-1.197.685-1.408.945-1.108.832"/><path d="M896.296 252.264l1.1.8m.01-.001l.34.137 1.03.802-1.37-.94"/><path d="M894.76 251.435l1.537.83-.35-.062m-.002-.001l1.46.85"/><path d="M895.945 252.202l1.095.863m0 0l.366-.012 1.014.88"/><path d="M897.04 253.065l1.38.867-.38.1"/><path d="M897.04 253.065l1 .956m-2.464-1.74l1.464.786-.38.153"/><path d="M896.66 253.218l1.38.803"/><path d="M896.66 253.218l.9 1m.01-.001l.47-.186.912 1.054m-1.382-.868l1.382.868-.488.257"/><path d="M897.57 254.207l.894 1.125m-2.36-1.912l1.466.788-.57.27m-.001 0l1.465.854m-1.466-.854l.872 1.188m0 0l.593-.334.86 1.258m-1.453-.924l1.454.924-.618.388"/><path d="M897.87 255.666l.836 1.312m-2.38-2.144l1.544.832-.694.4m0-.001l1.53.903-.72.454m-.8-1.347l.8 1.357m.01 0l1.505.977m-1.505-.977l.756 1.466-1.575-.95"/><path d="M896.384 256.556l1.602.876-.82.517m.001.001l.727 1.5-1.64-.914m-.001 0l.697 1.507-1.7-.872m1.003-.645l-1.004.635m.001-.001l.667 1.512m-.667-1.512l-1.088.7m.364-2.122l.723 1.433-1.78-.75m.001-.001l.692 1.44m-.692-1.44l-1.134.744m-.001.001l1.826.695-1.167.74-.66-1.434m1.136-.746l-1.838-.625m-.002.001l.704 1.37m-.704-1.37l-1.17.803m0 .001l1.874.566-1.205.8-.67-1.365m1.17-.805l-1.878-.5m.001.001l.708 1.302m-.708-1.302l-1.195.867m0 0l1.903.435-1.232.864m-.67-1.3l.67 1.3-1.918-.367m1.248-.942l-1.247.932m.542-2.173l.705 1.24-1.912-.308m0 .001l.665 1.24m-.665-1.24l-1.33.86m0-.001l1.995.38-1.328.92m-.667-1.3l.667 1.302-1.994-.315"/><path d="M885.316 258.705l-1.327.987m.63-2.23l.697 1.243-2.026-.32m.01.001l.7 1.306m-.7-1.306l-1.32 1.045m-.01-.001l2.018.26-1.317 1.1m-.7-1.37l.7 1.372-2-.2"/><path d="M881.97 259.43l-1.3 1.16m.573-2.46l.728 1.3-2.03-.207m.001.001l.73 1.368m-.73-1.368l-1.274 1.204m0 0l2.004.164-1.27 1.273m-.734-1.437l.734 1.437-1.97-.13"/><path d="M878.668 260.428l-1.236 1.308m.482-2.66l.754 1.353-1.995-.115m0 0l.76 1.423m-.76-1.423l-1.197 1.333m0-.001l1.956.1-1.2 1.402-.766-1.492m1.207-1.343l-1.977-.067m0 0l.78 1.4-1.93-.05"/><path d="M874.696 260.246l-1.15 1.35-.795-1.368"/><path d="M874.696 260.246l-1.945-.02m3.147-1.244l-1.202 1.264-.8-1.3"/><path d="M873.906 258.947l-1.155 1.28"/><path d="M873.906 258.947l-1.954.023m0 0l.8 1.257-1.904.03"/><path d="M871.952 258.97l-1.105 1.288-.803-1.207"/><path d="M871.952 258.97l-1.908.08m3.056-1.293l-1.158 1.213-.8-1.14"/><path d="M871.15 257.83l-1.107 1.222"/><path d="M871.15 257.83l-1.905.14m.001-.002l.798 1.083-1.847.138"/><path d="M869.246 257.968l-1.05 1.22-.8-1.017"/><path d="M869.246 257.968l-1.84.204m2.946-1.362l-1.106 1.16-.8-.956"/><path d="M868.456 257.012l-1.05 1.16"/><path d="M868.456 257.012l-1.707.142m.001 0l.658 1.018-1.7.2"/><path d="M866.75 257.154l-1.052 1.22-.637-.948"/><path d="M866.75 257.154l-1.7.27m2.8-1.426l-1.1 1.156-.578-.946"/><path d="M866.17 256.208l-1.1 1.217"/><path d="M866.17 256.208l-1.66.336m-.01 0l.55.88-1.654.402"/><path d="M864.5 256.544l-1.104 1.283-.513-.817"/><path d="M864.5 256.544l-1.617.466m2.793-1.672l-1.166 1.206-.46-.807"/><path d="M864.05 255.737L862.893 257"/><path d="M864.05 255.737l-1.572.523m0 0l.415.75-1.552.595"/><path d="M862.478 256.26l-1.137 1.345-.365-.696"/><path d="M862.478 256.26l-1.502.65m2.708-1.903l-1.206 1.253-.316-.677"/><path d="M862.162 255.583l-1.186 1.326"/><path d="M862.162 255.583l-1.447.696m0 .001l.26.63-1.413.772 1.152-1.402"/><path d="M862.162 255.583l-.216-.6m0-.001l-1.23 1.297-.155-.56"/><path d="M861.946 254.982l-1.386.737 1.272-1.26"/><path d="M861.946 254.982l-.114-.522m1.58-.1l-1.467.623 1.292-1.187m0-.001l-1.406.665m1.406-.665l-.077-.474m-.001-.001l-1.33 1.14-.01-.44m1.34-.7l-1.34.7 1.36-1.084m-.02.384l.02-.385m1.396-.212l-1.415.598 1.367-1.017m0 0l-1.348.632"/><path d="M864.528 252.304l.044-.32m0-.001l-1.392.953.117-.3"/><path d="M864.572 251.983l-1.275.662 1.4-.882m-.125.22l.135-.22m1.213-.353l-1.347.572 1.406-.823m-.001.001l-1.27.603 1.563-.816m-.293.213l.292-.213 1.342-.57m25.878.393l1.27.665m0 0l.337.134m-3.285-1.5l1.677.7-.343-.065m0 .001l1.613.73"/><path d="M893.146 250.705l1.257.735m0 0l.356-.005 1.186.767"/><path d="M894.403 251.44l1.542.762-.37.077"/><path d="M894.403 251.44l1.173.84m-2.786-1.5l1.614.67-.367.137"/><path d="M894.036 251.577l1.54.702"/><path d="M894.036 251.577l1.162.912m0 .001l.378-.2 1.083.94m-1.46-.73l1.46.73-.556.2"/><path d="M895.198 252.5l.905.93m-2.44-1.58l1.534.65-.64.225"/><path d="M894.56 252.714l1.544.705"/><path d="M894.56 252.714l.9.998m0 0l.653-.293.895 1.06m-1.548-.767l1.548.766-.672.356m-.886-1.122l.876 1.122m-2.496-1.796l1.62.674-.746.385"/><path d="M894.704 254.097l1.622.737m-1.622-.737l.856 1.174m0-.001l.766-.437.85 1.24m-1.616-.803l1.616.804-.792.48m-.824-1.284l.824 1.285m-2.514-1.985l1.7.7-.858.517m-.01.001l1.682.768m-1.682-.768l.798 1.32m0 .002l.884-.553.783 1.393m-1.667-.84l1.667.84-.914.577m-.753-1.417l.753 1.417-1.727-.798"/><path d="M893.757 256.382l1.743.727-.974.62m-.77-1.347l.77 1.346m-.77-1.346l-1.025.667m0 .001l1.794.68-1.057.683-.737-1.362m1.025-.67l-1.8-.612m-.001 0l.776 1.28m-.776-1.28l-1.068.72m0 0l1.844.558-1.1.737-.743-1.295m1.067-.72l-1.843-.495m0 0l.775 1.216m-.775-1.216l-1.102.78m-.001 0l1.877.436-1.135.796m-.742-1.232l.742 1.232-1.9-.374"/><path d="M889 256.055l-1.158.858m.4-2.017l.77 1.16-1.893-.318m-.001-.001l.735 1.176m-.735-1.176l-1.17.924m.002-.001l1.904.252-1.207.933m-.697-1.185l.697 1.185-2.027-.384"/><path d="M885.95 256.66l-1.33.8m.604-1.924l.725 1.125-2.056-.377m0 0l.726 1.178m-.726-1.178l-1.33.865m0 .001l2.056.313-1.33.924m-.726-1.237l.727 1.237-2.047-.256"/><path d="M882.563 257.15l-1.32.98m.57-2.145l.75 1.164-2.07-.242m0 0l.75 1.223m-.75-1.223l-1.302 1.03m.01.001l2.053.192-1.3 1.094m-.753-1.286l.752 1.286-2.028-.15"/><path d="M879.2 257.938l-1.276 1.137m.494-2.337l.772 1.2-2.05-.127m0-.001l.773 1.264m-.773-1.264l-1.243 1.17m.001.002l2.016.093-1.24 1.238-.775-1.33m1.24-1.173l-2.03-.06m-.01 0l.788 1.23-1.992-.035"/><path d="M875.1 257.75l-1.204 1.196-.796-1.2"/><path d="M875.1 257.75l-2 .006m3.255-1.113l-1.245 1.108-.796-1.127"/><path d="M874.314 256.624l-1.204 1.133"/><path d="M874.314 256.624l-2.005.055m.001.001l.8 1.078-1.96.072m1.15-1.15l-1.158 1.15-.8-1.02m1.958-.13l-1.957.13m3.16-1.204l-1.204 1.073-.8-.962m.001 0l-1.157 1.092"/><path d="M871.5 255.717l-1.95.194m0-.001l.793.898-1.896.203m1.113-1.11l-1.103 1.1-.596-1.014m1.7-.086l-1.7.087m2.853-1.124l-1.154 1.038-.537-1m0-.01l-1.162 1.088m1.162-1.088l-1.683.154m.001.01l.52.934-1.7.2"/><path d="M867.34 255.064l-1.168 1.144-.495-.87"/><path d="M867.34 255.064l-1.663.274m2.877-1.34l-1.215 1.067-.444-.85"/><path d="M866.895 254.215l-1.22 1.123"/><path d="M866.895 254.215l-1.628.336m0-.001l.4.787-1.626.4"/><path d="M865.267 254.55l-1.217 1.186-.366-.73"/><path d="M865.267 254.55l-1.583.456m2.848-1.55l-1.265 1.094-.32-.7"/><path d="M864.946 253.85l-1.262 1.157"/><path d="M864.946 253.85l-1.533.5m0 0l.27.648-1.522.576 1.25-1.224m1.535-.5l-.23-.6m0-.01l-1.303 1.12-.175-.564m1.478-.556l-1.478.555 1.338-1.072"/><path d="M864.716 253.24l-.14-.517m1.676.07l-1.536.446 1.34-1m0-.01l-1.48.493m1.48-.493l-.1-.462m-.001 0l-1.37.955-.048-.42m1.418-.535l-1.417.536 1.4-.893"/><path d="M865.945 251.768l-.026-.357m1.5-.08l-1.476.437 1.385-.838m.001.001l-1.4.48m1.4-.48l-.012-.3"/><path d="M867.318 250.64l-1.4.77.06-.25"/><path d="M867.318 250.64l-1.34.52 1.634-.783m-.294.263l.294-.264"/><path d="M868.72 250.2l-1.4.43 1.7-.742"/><path d="M869.018 249.9l-1.406.478m1.406-.478l.302-.193m1.465-.433l-1.465.432-1.708.67.3-.14m22.498-.672l-.333-.07m.001.001l1.734.584"/><path d="M890.078 249.495l1.4.58m-.001.001l.345.003 1.334.626m-1.69-.63l1.68.63-.357.066"/><path d="M891.467 250.076l1.322.695m-3.054-1.224l1.732.53-.352.12"/><path d="M891.115 250.196l1.674.575"/><path d="M891.115 250.196l1.312.766m0 0l.362-.2 1.247.806m-1.61-.606l1.6.615-.372.262"/><path d="M892.427 250.962l1.237.877m-2.906-1.404l1.67.527-.364.308m-.001 0l1.6.57"/><path d="M892.063 251.27l.884.825m0 0l.717-.256.895.875m-1.612-.62l1.612.62-.73.324"/><path d="M892.947 252.095l.883.943m-2.556-1.473l1.673.53-.8.36"/><path d="M892.148 252.456l1.682.582"/><path d="M892.148 252.456l.868 1.002m0 0l.814-.42.874 1.06m-1.688-.64l1.688.64-.834.473"/><path d="M893.016 253.458l.854 1.112m-2.597-1.65l1.743.54-.894.515m0-.002l1.748.597m-1.748-.597l.83 1.155m.001 0l.917-.558.832 1.218m-1.75-.66l1.75.66-.945.594-.804-1.254m-.832-1.155l-.97.607m0 0l1.8.548-.997.642-.804-1.2m.122-1.65l.85 1.054-1.796-.5m-.001.01l.826 1.097m-.826-1.097l-1.012.66m0 0l1.838.437-1.04.695m-.798-1.132l.8 1.132-1.87-.38"/><path d="M889.314 254.143l-1.072.753m.254-1.796l.818 1.044-1.863-.327m-.001-.001l.8 1.08m-.8-1.08l-1.093.815m.001-.001l1.884.265-1.124.84m-.76-1.105l.76 1.106-1.894-.2"/><path d="M886.358 254.63l-1.134.905m.353-1.935l.78 1.032-1.884-.154m.001-.001l.75 1.06m-.75-1.06l-1.332.698m0 0l2.082.36-1.33.748m-.752-1.108l.75 1.1-2.08-.3"/><path d="M883.142 255.175l-1.33.8m.56-1.835l.77 1.034-2.1-.274m0 0l.77 1.084m-.77-1.084l-1.32.866m-.002.001l2.1.218-1.32.922m-.77-1.14l.77 1.14-2.074-.17"/><path d="M879.72 255.767l-1.303.97m.518-2.022l.786 1.052-2.1-.137m.001 0l.786 1.108m-.786-1.108l-1.277 1.013m.01 0l2.063.095-1.277 1.073-.786-1.168m1.277-1.013l-2.074-.053m0 0l.797 1.066-2.04-.02"/><path d="M875.558 255.577l-1.244 1.047-.8-1.018"/><path d="M875.558 255.577l-2.045.03m3.322-.987l-1.277.958-.802-.963"/><path d="M874.756 254.614l-1.243.992"/><path d="M874.756 254.614l-2.045.084m-.001 0l.802.908-2.004.1"/><path d="M872.7 254.698l-1.202 1.02-.796-.844"/><path d="M872.7 254.698l-1.998.175m3.238-1.116l-1.24.94-.8-.794"/><path d="M871.9 253.904l-1.197.97"/><path d="M871.9 253.904l-1.68-.01m.01.001l.483.978-1.7.037"/><path d="M870.23 253.895l-1.208 1.015-.468-.913"/><path d="M870.23 253.895l-1.676.102m2.922-1.04l-1.246.94-.42-.883"/><path d="M869.8 253.012l-1.256.985"/><path d="M869.8 253.012l-1.652.166m.01 0l.396.82-1.66.218"/><path d="M868.158 253.178l-1.263 1.037-.363-.758"/><path d="M868.158 253.178l-1.626.28m2.922-1.226l-1.296.946-.322-.72"/><path d="M867.836 252.458l-1.304 1"/><path d="M867.836 252.458l-1.584.336m0 0l.28.663-1.586.393 1.306-1.056m1.584-.336l-.247-.617m.001-.001l-1.337.953-.196-.564m1.533-.4l-1.533.4 1.365-.9m.178.51l-.168-.5m1.744.218l-1.577.283 1.358-.847m0 0l-1.526.337m1.526-.337l-.15-.45m-.01 0l-1.377.787-.1-.4m1.477-.387l-1.468.386 1.4-.72"/><path d="M868.798 250.544l-.08-.334m1.596.042l-1.516.292 1.378-.676m0 0l-1.457.342m1.457-.342l.304-.353"/><path d="M870.48 249.515l-1.76.695.3-.3"/><path d="M870.48 249.515l-1.462.384 1.767-.625m-.305.24l.305-.24m1.205-.05l-1.5.3 1.82-.572m0-.001l-1.515.33"/><path d="M872.3 248.943l.308-.172m1.558-.275l-1.558.275-1.823.503.306-.123m12.026-1.046l.3-.015 1.544.215m-.001 0l.315.028"/><path d="M884.97 248.305l1.84.308m-.326.037l.327-.036 1.487.405m0-.001l.33.014 1.45.463"/><path d="M888.298 249.018l1.78.477-.343.052"/><path d="M888.298 249.018l1.437.53m-3.25-.898l1.814.37-.338.103"/><path d="M887.96 249.12l1.775.426"/><path d="M887.96 249.12l1.428.596m0 .001l.347-.17 1.38.65"/><path d="M889.388 249.717l1.727.48-.357.24"/><path d="M889.388 249.717l1.37.718m-3.138-1.1l1.77.382-.35.283"/><path d="M889.04 250l1.72.435"/><path d="M889.04 250l1.365.786m-.001 0l.354-.35 1.305.835m-1.66-.485l1.66.484-.8.295"/><path d="M890.404 250.786l.87.78m-2.58-1.178l1.7.398-.852.34"/><path d="M889.552 251.126l1.722.44m-1.722-.44l.86.844m.001 0l.86-.405.874.9m-1.734-.485l1.735.486-.875.463"/><path d="M890.413 251.97l.86.95m-2.636-1.34l1.776.4-.928.512"/><path d="M889.485 252.482l1.788.437-.947.564m-.84-1l.84 1-1.83-.384"/><path d="M889.485 252.482l-1 .617m.142-1.52l.848.902-1.82-.336m.001 0l.83.953m-.83-.953l-1.023.675m0-.001l1.853.278-1.045.717m-.808-.995l.808.995-1.874-.217"/><path d="M886.643 252.82l-1.066.778m.247-1.686l.82.9-1.863-.174m-.001-.001l.797.952m-.797-.952l-1.076.84m0 .001l1.873.1-1.103.878m-.77-.988l.77 1-2.102-.336"/><path d="M883.704 253.488l-1.332.653m.545-1.566l.787.913-2.12-.302m0 0l.788.955m-.788-.955l-1.33.714m0 0l2.118.24-1.33.76m-.788-1l.788 1-2.107-.186"/><path d="M880.254 253.9l-1.32.815m.52-1.73l.8.914-2.118-.145m-.001 0l.8.96m-.8-.96l-1.3.864"/><path d="M876.835 254.62l2.1.096-1.303.915-.797-1m1.3-.866l-2.106-.048m0 0l.805.912-2.08-.005m1.276-.917l-1.274.907-.806-.857m2.08-.05l-2.08.05m3.38-.867l-1.3.818-.808-.8m0-.012l-1.272.86"/><path d="M875.222 252.896l-2.076.1m0 .001l.804.75-2.04.147"/><path d="M873.146 253.007l-1.236.897-.434-.948"/><path d="M873.146 253.007l-1.67-.05m2.938-.77l-1.268.82-.392-.908"/><path d="M872.754 252.1l-1.278.857"/><path d="M872.754 252.1l-1.657.014m0-.001l.38.843-1.666.056"/><path d="M871.097 252.113l-1.287.9-.356-.78"/><path d="M871.097 252.113l-1.643.12m2.956-.93l-1.312.8-.32-.735"/><path d="M870.776 251.378l-1.322.854"/><path d="M870.776 251.378l-1.6.18m-.01 0l.288.674-1.618.226 1.33-.9m1.6-.18l-.26-.62m-.001-.001l-1.35.8-.22-.564m1.57-.236l-1.568.237 1.367-.742m.21.505l-.2-.505m1.8.368l-1.6.138 1.357-.7m0-.001l-1.558.195m1.558-.195l-.2-.44"/><path d="M871.682 249.617l-1.368.635-.138-.384"/><path d="M871.682 249.617l-1.506.25 1.815-.642m-.3.392l.3-.4m1.238.23l-1.547.16 1.86-.584m0-.001l-1.552.193"/><path d="M873.543 249.033l.312-.322m0-.001l-1.864.515.3-.283m1.564-.242l-1.555.232 1.866-.447m-.3.215l.3-.215m1.28.085l-1.6.132 1.903-.386m.001-.001l-1.592.17"/><path d="M875.758 248.325l.3-.148m.01 0l-1.902.32.3-.104"/><path d="M875.758 248.325l1.927-.255"/><path d="M877.685 248.07l-1.617.107 1.925-.188m-.308.08l.308-.08 1.633-.042m-1.94.123l1.94-.123m-2.253.308l.313-.185 1.632-.004m0 0l.3-.12"/><path d="M879.317 248.066l1.947-.056m0-.01l-1.638-.063m1.638.063l.303-.052"/><path d="M883.117 248.105l-1.55-.147-1.94-.01.302-.015"/><path d="M881.264 248l1.853.095m-2.163.068l.3-.153 1.537.214m.01 0l.316-.12m-.316.12l1.847.16"/><path d="M884.648 248.385l-1.53-.28 1.853.2m-.323.08l.322-.08 1.514.344"/><path d="M884.648 248.385l1.836.264"/><path d="M884.323 248.57l.325-.185 1.505.4m0 .01l.33-.146 1.476.472"/><path d="M886.153 248.795l1.807.326-.34.214m-1.467-.54l1.466.54m-3.296-.765l1.83.225-.334.254m.001.001l1.8.286"/><path d="M885.82 249.05l1.46.607m0-.001l.34-.32 1.42.665"/><path d="M887.28 249.656l1.76.344-.345.388"/><path d="M887.28 249.656l1.415.732m-3.2-.983l1.794.25-.338.424m-.001.001l1.753.308m-1.753-.308l.846.7m.001 0l.907-.4.858.738m-1.765-.348l1.765.347-.915.454m-.86-.79l.85.8M886 250.526l1.797.253-.96.5m-.01-.001l1.8.292-.97.566m-.84-.858l.838.858-1.842-.234"/><path d="M886.828 251.288l-1.004.624m.176-1.386l.838.762-1.83-.195m-.01 0l.826.82m-.826-.82l-1.027.684m-.001 0l1.853.135-1.044.735m-.8-.87l.8.87-1.863-.072"/><path d="M883.97 251.777l-1.054.798m.238-1.58l.817.782-1.854-.035m0 0l.8.833m-.8-.833l-1.333.573m0 0l2.133.26-1.333.6m-.8-.87l.8.87-2.13-.2"/><path d="M880.784 252.315l-1.33.67m.52-1.455l.8.785-2.138-.152m-.001 0l.8.823m-.8-.823l-1.317.726"/><path d="M877.33 252.9l2.126.097-1.32.77-.807-.866m1.317-.728l-2.128-.043m0 0l.8.77-2.107.007m1.307-.787l-1.296.776-.808-.708m2.104-.068l-2.104.068m3.42-.756l-1.315.688-.8-.67m-.012 0l-1.293.738m1.293-.738l-1.65-.123m-.001 0l.358.86-1.66-.1"/><path d="M874.056 251.327l-1.302.772-.345-.797"/><path d="M874.056 251.327l-1.647-.025m2.967-.662l-1.32.686-.318-.746"/><path d="M873.738 250.58l-1.33.72"/><path d="M873.738 250.58l-1.623.038m0 .002l.294.683-1.633.076 1.34-.76m1.622-.04l-.276-.624m0 .001l-1.347.662-.243-.562m1.6-.1l-1.6.1 1.357-.6"/><path d="M873.462 249.957l-.233-.5m1.847.497l-1.614.003 1.347-.565m.001 0l-1.58.066m1.58-.066l.318-.456"/><path d="M875.127 248.936l-1.898.522.314-.425"/><path d="M875.127 248.936l-1.584.097 1.9-.454m-.316.357l.317-.357m1.293.355l-1.6.002 1.93-.4m-.01-.001l-1.612.034m1.612-.034l.316-.3"/><path d="M877.372 248.255l-1.928.324.314-.254 1.614-.07m-.316.3l1.946-.26"/><path d="M879.002 248.286l-1.63-.03 1.945-.2m-.315.22l.315-.22 1.637.097m-1.952.123l1.952-.123m-2.27.445l.318-.322 1.636.13m0-.001l.316-.252m-.316.252l1.843.03m-.001-.001l-1.527-.28 1.847.06m-.32.22l.32-.22 1.522.346m-1.842-.126l1.842.126m-2.162.195l.322-.32 1.514.415m-.001 0l.328-.3 1.496.48m-1.824-.2l1.824.2-.334.356m-1.5-.556l1.5.546m-3.335-.64l1.836.094-.327.4m-.001-.001l1.817.157m-1.807-.138l1.487.613m0-.001l.33-.456 1.456.675m-1.786-.22l1.786.22-.95.446m-.836-.666l.835.665m-2.647-.8l1.812.127-.986.505m.001 0l1.82.16-.992.567m-.828-.727l.83.727-1.844-.098"/><path d="M884.17 250.366l-1.015.63m.188-1.262l.826.632-1.835-.065m0-.001l.82.694m-.82-.694l-1.026.7m0 .002l1.846.003-1.037.747m-.8-.75l.8.75-2.142-.212m1.333-.548l-1.333.538m.52-1.2l.814.663-2.147-.157m-.001-.001l.814.695m-.814-.695l-1.328.597m0 0l2.142.098-1.33.633-.813-.73m1.328-.598l-2.14-.038m0 0l.813.635-2.126.018"/><path d="M877.02 250.797l-1.313.653-.33-.8"/><path d="M877.02 250.797l-1.644-.156m2.97-.4l-1.326.565-.313-.75m0-.001l-1.33.595m1.33-.595l-1.63-.092m-.001 0l.3.687-1.638-.06 1.338-.627m1.63.092l-.3-.626m-.001 0l-1.34.534-.267-.562m1.618.02l-1.607-.028 1.928-.458m-.32.486l.32-.486m1.306.608l-1.626-.122 1.947-.393m0 0l-1.626-.093m1.626.093l.32-.42m.001.001l-1.947.326.32-.4 1.628.063"/><path d="M878.363 249.027l1.957-.262m0 0l-1.636-.157 1.954-.193m-.318.35l.318-.35 1.52.35m-1.838 0h1.84"/><path d="M880 249.214l.32-.45 1.516.42m0 .001l.323-.42 1.5.483m-1.833-.063l1.832.063-.325.486"/><path d="M881.836 249.185l1.507.55m-3.343-.52l1.837-.03-.322.515m-.001.001l1.83.034-1 .567m-.82-.6l.82.6-1.84.028"/><path d="M881.514 249.7l-1.02.63"/><path d="M880 249.214l1.515.486-1.836.057m-.001 0l.816.572m-.816-.572l-1.332.475m0 0l2.148.097-1.333.506-.815-.603"/><path d="M880 249.214l-.32.543-1.636-.215m-.002 0l.304.7-1.64-.186 1.335-.504"/><path d="M880 249.214l-1.957.328.32-.515 1.636.187m311.1-89.504l-1.044-.85-1.127-.784-1.114-.705-1.27-.7-1.256-.593-1.393-.574-1.445-.485-1.416-.4-1.522-.344-1.486-.25-1.565-.193-1.57-.1-1.537-.022-1.587.072-1.527.13-1.5.226-1.524.296-1.448.372-1.44.45-1.354.504-.203.1-1.12.495-1.233.616-1.184.698-1.094.704m31.804.487h.1l.953.8"/><path d="M1189.944 158.86l1.053.8-.105.083m0-.01l1.044.85m-1.044-.85l.915.998m-1.117-.847l1.116.847-.227.208m-4.187 3.055l-.932.637m.932-.637l-1.553-.58m.001.001l.62 1.216-1.584-.52m.964-.695l-.963.695m-.001-.001l.582 1.2m.382-1.894l-1.596-.46m-.001.001l.633 1.154m-.633-1.154l-.984.757m.001 0l1.617.397-1.027.74m-.6-1.137l.6 1.138-1.622-.317"/><path d="M1183.26 163.714l-1.032.82m.396-1.917l.635 1.097-1.665-.335m0 .001l.633 1.156m-.633-1.156l-1.038.88m0 0l1.67.276m-1.04.94l1.042-.94.586 1.2m-2.257-1.476l.63 1.217-1.67-.222"/><path d="M1180.556 164.26l-1.04.995m.367-2.16l.673 1.165-1.7-.232m-.01 0l.67 1.227-1.7-.185m1.03-1.043l-1.03 1.042m-.708-1.23l.707 1.23-1.723-.147m0-.001l.705 1.3m-.705-1.3l-.996 1.177-.74-1.285m-1.74-.07l-.934 1.22-.798-1.248m0-.001l-.897 1.228"/><path d="M1170.885 164.716l-1.716.01m.001.001l-1.7.05m2.595-1.215l-.896 1.165-.836-1.115m0 0l-.854 1.166m.854-1.166l-1.7.097m-.001.001l.847 1.07-1.655.1m.808-1.18l-.808 1.16-.852-1.015"/><path d="M1166.632 163.7l-1.66.144m2.512-1.25l-.852 1.104-.854-.954"/><path d="M1165.778 162.755l-.806 1.098m.806-1.098l-1.658.204m0 .001l.852.894m-.852-.894l-.757 1.084"/><path d="M1162.5 163.228l.853.815 1.6-.2-.76 1.144m-.083-2.027l-1.6.27m2.404-1.3l-.804 1.04-.804-.827m0-.001l-.806 1.096m.806-1.096l-1.594.333m0 0l.788.763m-1.588.395l1.588-.395-.754 1.145m-.034-1.908l-.8 1.158-.762-.703m1.562-.455l-1.562.455m2.413-1.557l-.85 1.102-.72-.7m-.001.001l-.842 1.164-.688-.652m1.54-.532l-1.53.512m.883-1.163l-.883 1.163-.6-.6m.001.002l-.86 1.23m.85-1.23l-1.426.68.898-1.22m-.442-.483l-1.323.755.966-1.174m0 0l-1.265.784m1.265-.784l-.268-.355m0 0l-.178-.288m1.466-.428l-1.288.716 1.048-1.027m0 0l-1.226.74m1.226-.74l-.154-.237m0-.01l-1.072.976-.087-.22"/><path d="M1158.162 158.6l-1.16.756 1.093-.917"/><path d="M1158.162 158.6l-.066-.16m1.3-.517l-1.235.676 1.1-.855m0 0l-1.166.694m1.166-.694l-.05-.096"/><path d="M1160.375 157.022l-1.164.636-1.115.8m.02-.096l-.02.086-1.1.766m31.92-1.138l1.027.785m-2.23-1.498l1.203.713-.103.058"/><path d="M1188.814 158.134l1.13.727"/><path d="M1188.814 158.134l.95.815m0 .001l.18-.088.948.873"/><path d="M1189.764 158.95l1.128.785-.2.15m-.928-.935l.927.936m-2.13-1.65l1.205.714-.273.163m-.002 0l1.2.773"/><path d="M1189.5 159.112l.904.992m.001 0l.296-.22.9 1.055m-1.186-.835l1.185.836-.324.27m-.88-1.106l.86 1.105m-2.128-1.86l1.268.754-.4.287m.01.01l1.25.818-.42.328"/><path d="M1190.005 160.4l.83 1.146m.001.001l1.223.884m-1.223-.884l.77 1.245-1.285-.86"/><path d="M1189.522 160.744l1.314.793-.514.385m0 0l.573.986m-1.177-.545l.158.3.546.996-1.397-.8"/><path d="M1189.718 162.363l-.693.495m0 0l.67 1.293m-.67-1.293l-.776.545m.044-1.765l.436.727.296.493-1.473-.682m0 0l.697 1.227m-.697-1.227l-.82.593m0 .001l1.517.634-.857.592-.66-1.226m.82-.594l-.875-.326-.658-.244"/><path d="M1186.02 161.606l.058.094.655 1.07m-.713-1.164l-.08.06-.775.587m0 0l1.567.516-.893.647-.674-1.163m.855-.647l-1.575-.458m-.001 0l.1.17.6.935m-.7-1.105l-.136.108-.744.596m0 0l1.6.4-.922.704m-.678-1.104l.68 1.105-1.62-.34"/><path d="M1183.564 161.852l-.94.765m.218-1.815l.072.105.65.945-1.618-.287m0 0l.678 1.052m-.678-1.052l-1.028.708m0 0l1.706.344-1.03.762m-.676-1.106l.676 1.106-1.7-.285"/><path d="M1180.918 162.273l-1.035.82m.32-1.873l.716 1.052-1.75-.286m.002.001l.714 1.107m-.714-1.107l-1.033.874m-.001-.001l1.747.233-1.037.933m-.7-1.166l.7 1.166-1.738-.187"/><path d="M1178.136 162.86l-1.028.98m.28-2.08l.748 1.1-1.773-.18m0 0l.745 1.16m-.745-1.16l-1.013 1.02m0 0l1.758.14-1.016 1.082m-.742-1.222l.742 1.222-1.736-.108"/><path d="M1175.35 163.7l-.994 1.114m.22-2.26l.775 1.145-1.766-.094m0 0l.772 1.208m-.772-1.208l-.967 1.14m-.001 0l1.74.07-.968 1.2-.77-1.27m.965-1.14l-1.766-.046m0 0l.8 1.185-1.732-.03"/><path d="M1171.818 163.56l-.933 1.156-.82-1.154"/><path d="M1171.818 163.56l-1.753.002m2.717-1.078l-.964 1.076-.822-1.1"/><path d="M1170.996 162.47l-.93 1.093"/><path d="M1170.996 162.47l-1.77.04m0 0l.84 1.053-1.732.05m.892-1.113l-.893 1.103-.85-1.007m1.743-.096l-1.742.096m2.67-1.13l-.93 1.033-.85-.947m.001.01l-.9 1.043"/><path d="M1168.375 161.562l-1.747.148m0-.01l.856.895-1.706.15"/><path d="M1166.628 161.7l-.85 1.045-.854-.836"/><path d="M1166.628 161.7l-1.704.2m2.592-1.187l-.888.987-.858-.78"/><path d="M1165.77 160.93l-.846 1"/><path d="M1165.77 160.93l-1.602.16m0 0l.756.83-1.608.213"/><path d="M1164.168 161.1l-.852 1.043-.743-.77"/><path d="M1164.168 161.1l-1.595.274m2.487-1.26l-.893.985-.698-.765m.001-.01l-.897 1.04m.897-1.04l-1.574.333m0 0l.677.706-1.57.393"/><path d="M1161.896 160.657l-.894 1.1-.647-.65"/><path d="M1161.896 160.657l-1.54.448m2.478-1.475l-.938 1.028-.607-.64"/><path d="M1161.3 160.018l-.934 1.087"/><path d="M1161.3 160.018l-1.505.5m-.001-.001l.57.588-1.492.564m.912-1.152l-.92 1.152-.528-.54m1.448-.612l-1.45.6m2.42-1.677l-.97 1.068-.492-.522"/><path d="M1159.292 159.995l-.957 1.133"/><path d="M1159.292 159.995l-1.4.652m.001 0l.442.48-1.376.72.934-1.2m1.4-.652l-.4-.455m-.01 0l-1 1.107-.357-.42m1.357-.687l-1.346.688 1.02-1.07"/><path d="M1158.882 159.54l-.326-.383m1.74-.204l-1.414.587 1.033-1.006m0 0l-1.36.623m1.36-.623l-.3-.34"/><path d="M1159.615 158.193l-1.06.964-.24-.3"/><path d="M1159.615 158.193l-1.3.653 1.08-.913"/><path d="M1159.615 158.193l-.218-.26m1.58-.303l-1.363.562 1.084-.853m.001.001l-1.302.593m1.302-.593l-.202-.203"/><path d="M1160.497 157.137l-1.1.796-.135-.18"/><path d="M1160.497 157.137l-1.235.617 1.113-.732"/><path d="M1160.497 157.137l-.122-.115m1.42-.424l-1.298.54 1.106-.68m0-.002l-1.228.566m1.228-.566l.025-.112m1.294-.537l-.13.053-1.165.484-1.253.678.02-.062m26.138-.28l1.182.683m0 0l.1.008m-2.608-1.3l1.336.6-.1.045m-.002.01l1.273.638"/><path d="M1186.44 156.725l1.17.748m-.01 0l.104-.1 1.1.77"/><path d="M1187.6 157.473l1.204.66-.255.1"/><path d="M1187.6 157.473l.95.762m-2.2-1.355l1.27.592-.327.12"/><path d="M1187.283 157.594l1.276.64"/><path d="M1187.283 157.594l.933.823m0 0l.343-.182.932.877"/><path d="M1188.216 158.417l1.275.695-.364.238"/><path d="M1188.216 158.417l.9.933m-2.253-1.547l1.343.614-.43.264"/><path d="M1187.786 158.68l1.34.67"/><path d="M1187.786 158.68l.887.98m0 .002l.454-.312.878 1.04m-1.332-.728l1.332.73-.483.353"/><path d="M1188.673 159.662l.85 1.082m-2.25-1.72l1.4.638-.54.383"/><path d="M1188.132 160.045l1.4.7"/><path d="M1188.132 160.045l.82 1.115m-.002 0l.57-.416.8 1.178m-1.37-.762l1.37.762-.604.44"/><path d="M1188.95 161.16l.767 1.203m-2.2-1.863l1.444.66-.658.478"/><path d="M1188.293 161.638l1.425.725.68.42m-2.9-2.283l.786 1.14m-.786-1.14l-.706.52m-.001 0l1.492.618-.74.538-.082-.127-.67-1.03m.707-.52l-1.5-.558"/><path d="M1186.006 159.94l.795 1.08m-.795-1.08l-.746.57"/><path d="M1185.26 160.5l1.54.5-.782.586-.76-1.096m.748-.55l-1.545-.454m-.001.001l.8 1.023m-.8-1.023l-.78.62m.002.001l1.578.402-.816.638m-.762-1.04l.762 1.04-1.602-.346"/><path d="M1183.682 160.108l-.84.694m.043-1.666l.797.972-1.6-.296m.001 0l.76 1m-.76-1l-.854.753m.001 0l1.613.237-.078.067-.818.696m-.717-1l.717 1-1.744-.344"/><path d="M1181.23 160.565l-1.027.656m.273-1.6l.752.943-1.78-.335m.002.002l.752 1m-.752-1l-1.03.713m0 0l1.783.278-1.033.766m-.75-1.044l.75 1.044-1.78-.226m1.03-.82l-1.03.818m.246-1.793l.783.975-1.812-.2m0-.01l.78 1.028m-.78-1.028l-1.022.863m0 0l1.803.165-1.025.92m-.778-1.085l.778 1.085-1.788-.126"/><path d="M1175.585 161.596l-1 .96m.193-1.966l.807 1.005-1.814-.103m-.001.001l.804 1.062m-.804-1.062l-1 1m.012-.01l1.793.07-1 1.05-.802-1.122m.987-1l-1.813-.04m.001 0l.824 1.03-1.786-.015"/><path d="M1171.958 161.453l-.962 1.016-.84-.993"/><path d="M1171.958 161.453l-1.803.023m2.788-.956l-.985.934-.844-.936"/><path d="M1171.114 160.517l-.96.96"/><path d="M1171.114 160.517l-1.813.068m-.001 0l.854.9-1.78.086"/><path d="M1169.3 160.585l-.926.977-.86-.84"/><path d="M1169.3 160.585l-1.785.138m2.74-1.045l-.955.907-.863-.787"/><path d="M1168.438 159.798l-.922.925"/><path d="M1168.438 159.798l-1.785.195m0 0l.863.73-1.746.206"/><path d="M1166.653 159.993l-.883.936-.7-.825"/><path d="M1166.653 159.993l-1.592.1m2.5-.988l-.918.878-.664-.812"/><path d="M1166 159.18l-.928.923"/><path d="M1166 159.18l-1.584.17m-.001 0l.656.753-1.6.22m.934-.973l-.935.973-.636-.695m1.57-.278l-1.57.278m2.538-1.178l-.968.9-.597-.674m0 .001l-.974.952"/><path d="M1163.808 158.677l-1.544.333m0-.01l.57.62-1.545.4"/><path d="M1162.264 159l-.975 1.008-.535-.57"/><path d="M1162.264 159l-1.5.44m2.506-1.355l-1.007.925-.5-.542"/><path d="M1161.763 158.468l-1 .98"/><path d="M1161.763 158.468l-1.467.485m0 0l.458.496-1.462.546 1.004-1.042"/><path d="M1161.763 158.468l-.43-.46m0 0l-1.037.945-.38-.42"/><path d="M1161.333 158.008l-1.418.526 1.063-.903"/><path d="M1161.333 158.008l-.355-.377m1.822-.05l-1.467.43 1.062-.848m0-.002l-1.417.47m1.417-.47l-.336-.327"/><path d="M1162.06 156.833l-1.08.798-.28-.3"/><path d="M1162.06 156.833l-1.36.507 1.096-.742"/><path d="M1162.06 156.833l-.264-.235m1.674-.185l-1.4.42 1.088-.693m-.01 0l-1.352.458m1.352-.458l-.256-.174m-.001 0l-1.096.632-.192-.142m1.288-.5l-1.288.5 1.32-.65m-.032.15l.015-.078.016-.08m1.312-.258l-1.342.415.116-.052 1.264-.563m-.001 0l-1.35.456"/><path d="M1164.27 155.35l.035-.096m1.402-.414l-1.4.416-1.384.552.03-.048m20.85-.215l.08-.032 1.313.557m.001 0l.08.017"/><path d="M1183.802 155.545l1.394.525"/><path d="M1183.802 155.545l1.303.62m0-.001l.1-.094 1.245.655m-1.345-.56l1.336.56-.102.156"/><path d="M1185.105 156.164l1.234.717m-2.625-1.2l1.4.483-.098.198m.001.001l1.332.52"/><path d="M1185.007 156.362l.936.668m0 0l.396-.15.944.713m-1.34-.563l1.34.564-.4.2"/><path d="M1185.943 157.03l.93.773m-2.325-1.258l1.395.485-.472.242"/><path d="M1185.47 157.272l1.402.53"/><path d="M1185.47 157.272l.912.827m.001.001l.5-.296.913.878m-1.413-.582l1.403.582-.514.343"/><path d="M1186.383 158.1l.9.925m-2.347-1.42l1.457.493-.568.38m0 .001l1.457.544"/><path d="M1185.815 158.48l.863.965m0 0l.594-.42.86 1.02m-1.454-.6l1.454.6-.625.454-.83-1.054m-.862-.965l-.642.463m0 0l1.505.502-.672.496-.833-.998m-.247-1.337l.9.874-1.504-.45m-.002 0l.862.913m-.862-.913l-.682.5m.002 0l1.544.402-.712.544m-.832-.946l.832.946-1.576-.35"/><path d="M1183.63 158.54l-.744.595m-.116-1.46l.858.866-1.57-.304"/><path d="M1182.058 158.237l.827.9m-.827-.9l-.766.65m0 0l1.593.25-.802.676m-.8-.926l.8.925-1.607-.2"/><path d="M1181.292 158.887l-.816.734m-.006-1.6l.82.856-1.6-.15m.002.002l.784.883m-.784-.883l-1.025.565m0 0l1.8.318-1.026.6m-.784-.928l.783.927-1.814-.262"/><path d="M1178.667 159.303l-1.03.665m.217-1.524l.813.86-1.84-.238m-.001-.001l.8.903m-.8-.903l-.332.23-.696.485m0 0l1.838.187-1.03.765m-.808-.952l.8.952-1.83-.142"/><path d="M1175.798 159.78l-1.02.8m.188-1.67l.01.005.827.867-1.85-.1m-.005-.002l.83.92m-.83-.92l-1.005.85"/><path d="M1172.943 160.52l1.835.072-1.007.902-.828-.974m1.005-.85l-1.852-.034m0 0l.847.883-1.83-.002"/><path d="M1172.096 159.636l-.982.88-.858-.84"/><path d="M1172.096 159.636l-1.84.042m2.842-.842l-1.002.8-.86-.8"/><path d="M1171.235 158.846l-.98.832"/><path d="M1171.235 158.846l-1.846.093m.001.001l.867.74-1.818.12"/><path d="M1169.4 158.94l-.95.86-.867-.683"/><path d="M1169.4 158.94l-1.818.176m2.792-.966l-.975.788-.872-.64m-.01.002l-.946.815m.946-.815l-1.57.025m-.001 0l.625.8-1.582.066"/><path d="M1166.946 158.325l-.957.856-.616-.73"/><path d="M1166.946 158.325l-1.573.125m2.555-.9l-.982.785-.58-.702"/><path d="M1166.365 157.623l-.992.827"/><path d="M1166.365 157.623l-1.555.18m-.01.001l.563.646-1.565.227"/><path d="M1164.8 157.804l-1.002.873-.537-.592"/><path d="M1164.8 157.804l-1.54.28m2.572-1.072l-1.022.792-.507-.557"/><path d="M1164.303 157.247l-1.032.838"/><path d="M1164.303 157.247l-1.503.332m0 .001l.47.506-1.508.383 1.037-.9m1.504-.332l-.448-.465m0 0l-1.055.797-.405-.42m1.46-.377l-1.46.378 1.074-.747"/><path d="M1163.855 156.782l-.386-.37m1.88.085l-.01.002-1.485.283 1.065-.702m0 0l-1.45.333m1.45-.333l-.373-.316"/><path d="M1164.547 155.764l-1.078.65-.322-.273"/><path d="M1164.547 155.764l-1.4.376.24-.13.845-.458"/><path d="M1164.547 155.764l-.314-.213m1.754-.078l-1.44.3 1.073-.548m0 .001l-1.387.335m1.387-.335l.046-.238"/><path d="M1165.666 154.978l-1.433.573.038-.2"/><path d="M1165.666 154.978l-1.395.373 1.436-.512m-.04.14l.04-.14m1.396-.148l-1.436.3 1.484-.466m0-.002l-1.443.327"/><path d="M1167.15 154.512l.043-.078m1.48-.278l-1.48.278-1.486.405.038-.033m15.277-.2l-.07.017m-.002 0l1.487.394m-1.487-.383l1.408.47m.002 0l.08-.076 1.364.517"/><path d="M1182.36 155.104l1.443.44-.088.136"/><path d="M1182.36 155.104l1.355.577m-2.84-.93l1.484.355-.085.176"/><path d="M1182.274 155.28l1.44.4"/><path d="M1182.274 155.28l1.347.638m-.001 0l.093-.237 1.293.68m-1.386-.443l1.386.444-.46.183"/><path d="M1183.62 155.918l.927.627m-2.36-.995l1.434.367-.516.223"/><path d="M1183.105 156.14l1.443.404"/><path d="M1183.105 156.14l.915.685m0 .001l.528-.28.923.727m-1.45-.447l1.45.446-.545.334m-.906-.78l.906.78m-2.398-1.14l1.492.36-.593.377m0 0l1.5.403-.615.424m-.885-.827l.884.827-1.54-.355"/><path d="M1183.427 157.203l-.656.472m-.243-1.2l.9.737-1.533-.312m-.001 0l.877.784m-.877-.784l-.687.523m0 .001l1.564.26-.713.562m-.85-.822l.85.823-1.587-.206m.736-.627l-.736.617m-.134-1.36l.87.745-1.58-.168"/><path d="M1179.628 157.246l.843.785m-.843-.785l-.748.673m0 .001l1.6.112-.78.707m-.8-.82l.812.82-1.838-.294"/><path d="M1178.88 157.92l-1.026.525m.2-1.275l.837.75-1.86-.26m0-.002l.835.786m-.835-.786l-1.028.58m-.002 0l1.863.206-1.028.62m-.835-.826l.835.827-1.86-.156"/><path d="M1176 158.238l-1.025.67m.162-1.408l.854.748-1.878-.118"/><path d="M1174.113 158.12l.853.8m-.853-.8l-.606.427-.4.3"/><path d="M1173.098 158.836l1.868.073v.003l-1.013.758-.85-.834m1-.716l-1.88-.03m.001 0l.224.193.64.552-1.863.01"/><path d="M1172.234 158.1l-.137.103-.862.652-.87-.695"/><path d="M1172.234 158.1l-.485.015-1.385.045m2.882-.734l-1.012.675-.875-.655m.001-.01l-.995.715m.995-.715l-1.87.116m-.002 0l.876.6-1.847.15"/><path d="M1169.488 157.552l-.97.748-.6-.76"/><path d="M1169.488 157.552l-1.56-.012m2.552-.667l-1 .68-.012-.016-.546-.708"/><path d="M1168.93 156.828l-.595.422-.407.3"/><path d="M1168.93 156.828l-1.552.045m0 0l.142.173.408.494-1.563.083"/><path d="M1167.378 156.873l-.138.102-.875.648-.533-.6"/><path d="M1167.378 156.873l-1.546.14m2.57-.8l-1.025.67-.5-.57"/><path d="M1166.87 156.304l-1.038.708"/><path d="M1166.87 156.304l-1.52.193"/><path d="M1165.35 156.497l.01.006.478.5-1.53.235 1.042-.747v-.003m1.52-.194l-.465-.467m-.001 0l-1.055.66-.43-.417"/><path d="M1166.404 155.837l-1.484.243 1.067-.607"/><path d="M1166.404 155.837l-.417-.364m1.925.2l-1.508.155 1.055-.57m.001 0l-1.472.206m1.472-.206l-.4-.307"/><path d="M1167.048 154.96l-1.06.513-.367-.257"/><path d="M1167.048 154.96l-1.428.256 1.482-.527m-.054.27l.054-.27m1.408.097l-1.46.173 1.522-.476m-.002 0l-1.468.205"/><path d="M1168.57 154.484l.055-.212m0 0l-1.523.417.048-.177"/><path d="M1168.625 154.272l-1.475.24 1.523-.356m-.048.116l.048-.116m1.45-.036l-1.5.15 1.554-.303"/><path d="M1170.18 153.97l-1.506.187"/><path d="M1170.18 153.97l.05-.057-1.555.244.044-.018"/><path d="M1170.18 153.97l1.576-.187m-.056.1l.055-.092 1.534-.038m.001 0l.053-.034"/><path d="M1173.3 153.744l1.6-.012m-.07.064l.058-.064 1.5.133m.012 0l.06-.034 1.504.192"/><path d="M1176.4 153.865l1.563.158m-.01 0l.06.001"/><path d="M1177.953 154.023l1.547.25"/><path d="M1177.886 154.115l.067-.092 1.478.306m-.001.001l.07-.056 1.45.36m-1.52-.304l1.52.305-.076.115"/><path d="M1179.43 154.33l1.444.42m-2.988-.635l1.545.214-.074.152"/><path d="M1179.357 154.48l1.518.268"/><path d="M1179.357 154.48l1.437.48m0 0l.08-.2 1.4.53"/><path d="M1180.794 154.96l1.48.32-.087.27m-1.393-.6l1.393.6m-2.907-.827l1.513.237-.083.302m0 0l1.476.3"/><path d="M1180.7 155.262l.9.557m0 .001l.567-.268.918.6"/><path d="M1181.62 155.82l1.485.322-.577.325"/><path d="M1181.62 155.82l.908.647m-2.425-.887l1.517.24-.617.373m0-.001l1.525.274-.634.425m-.9-.7l.9.7-1.557-.222"/><path d="M1181.003 156.192l-.666.477m-.234-1.1l.9.612-1.55-.187m0 .01l.884.664m-.884-.664l-.688.53m0 .001l1.572.133-.7.577m-.862-.7l.863.7-1.585-.077"/><path d="M1178.765 156.536l-.722.633m-.155-1.264l.877.63-1.578-.045m0 .01l.856.678m-.856-.678l-1.024.456m0 .001l1.88.222-1.024.5m-.856-.712l.856.7-1.882-.168m1.026-.552l-1.026.543m.155-1.177l.87.634-1.896-.124m.001 0l.87.667m-.87-.667l-1.02.593m-.001 0l1.9.074-1.024.63-.867-.704m1.022-.593l-1.9-.025m.001 0l.878.618-1.887.02m1-.638l-1 .638-.88-.563m1.88-.075l-1.9.075m2.9-.633l-1.02.56-.883-.53m.02 0l-1.006.604m1.006-.604l-1.54-.077m0-.001l.534.68-1.55-.045"/><path d="M1169.945 156.192l-1.015.636-.527-.625"/><path d="M1169.945 156.192l-1.542.01m2.565-.567l-1.023.557-.5-.577"/><path d="M1169.436 155.615l-1.033.588"/><path d="M1169.436 155.615l-1.524.067m0 0l.5.52-1.534.1 1.043-.622m1.525-.065l-.48-.47m.001 0l-1.045.537-.453-.415m1.498-.122l-1.498.122 1.05-.48"/><path d="M1168.957 155.145l-.448-.358m1.96.323l-1.514.036 1.04-.45m0 0l-1.487.1m1.487-.1l.067-.33"/><path d="M1170.063 154.365l-1.554.422.06-.303"/><path d="M1170.063 154.365l-1.493.12 1.554-.363m-.06.243l.06-.244m1.45.2l-1.5.035 1.577-.307m-.001 0l-1.516.063"/><path d="M1171.64 154.058l.06-.184m0 0l-1.576.247.055-.152 1.52-.095"/><path d="M1171.64 154.058l1.6-.2"/><path d="M1173.23 153.868l-1.53.006 1.6-.13m-.06.124l.06-.124 1.532.052m-1.592.072l1.6-.072m-1.655.284l.065-.212 1.53.08m0 0l.062-.152m-.062.152l1.567.04"/><path d="M1176.326 153.988l-1.505-.192 1.57.07m-.065.122l.064-.123 1.496.25"/><path d="M1176.326 153.988l1.56.127"/><path d="M1176.258 154.2l.068-.212 1.5.3m-.01.01l.07-.183 1.47.366"/><path d="M1177.816 154.298l1.54.183-.076.242m-1.464-.425l1.465.425m-3.023-.523l1.558.098-.074.272m0 0l1.54.153"/><path d="M1177.742 154.57l1.46.485m-.002 0l.08-.332 1.43.54m-1.5-.208l1.5.207-.608.318m-.902-.525l.902.525m-2.437-.652l1.536.127-.64.37m-.001 0l1.542.155-.65.425m-.892-.58l.892.58-1.565-.1"/><path d="M1178.56 155.425l-.673.48m-.222-.977l.896.497-1.56-.072"/><path d="M1177.002 155.353l.886.552m-.886-.552l-.687.536m0 .001l1.573.016-.7.586m-.873-.602l.872.602-1.895-.178"/><path d="M1176.315 155.9l-1.023.424m.14-.95l.883.524-1.905-.128m-.01-.001l.882.552m-.882-.552l-1.023.478"/><path d="M1173.387 156.24l1.905.074-1.025.5-.88-.584m1.013-.47l-1.9-.02m.01 0l.886.5-1.902.03"/><path d="M1172.5 155.74l-1.016.53-.517-.634"/><path d="M1172.5 155.74l-1.533-.105m2.553-.345l-1.02.45-.506-.582"/><path d="M1171.995 155.158l-1.027.477m1.027-.477l-1.524-.05m-.001.002l.497.526-1.532-.02 1.035-.506m1.525.048l-.493-.47m0 0l-1.03.42-.475-.413m1.505-.007l-1.506.008 1.578-.366m-.072.358l.072-.358m1.446.433l-1.518-.075 1.593-.3m0 .002l-1.52-.05m1.52.05l.07-.3m0 0l-1.6.25.066-.272 1.525.022"/><path d="M1173.095 154.38l1.596-.192m-.001-.001l-1.526-.107 1.594-.132m-.068.24l.068-.24 1.5.252m-1.568-.012l1.567.013"/><path d="M1174.62 154.512l.072-.325 1.494.313m-.001 0l.073-.3 1.484.37m-1.557-.07l1.557.07-.077.358m-1.48-.428l1.48.428m-3.045-.416l1.566-.012-.075.384m-.01 0l1.555.044-.663.425m-.892-.47l.892.47-1.57.012m.677-.48l-.678.48m-.802-.852l1.5.372-1.568.038m-.01 0l.9.443m-.9-.443l-1.02.37m-.002-.002l1.9.074-1.022.396-.9-.47m1.102-.778l-.077.4-1.522-.16"/><path d="M1173.02 154.763l.5.528-1.526-.133 1.025-.395m1.6-.25l-1.6.25.075-.384 1.524.133"/></g><g class="K R"><path d="M924.378 539.593l-1.545 19.908m1.527-21.767l-1.932-18.946m-.001 0l1.3 20.008m-3.93-33.532l2.62 13.524L910.4 521m0 0l13.328 17.795m-26.388 5.625l26.4-5.624"/><path d="M910.4 521l-13.07 23.42"/><path d="M910.4 521l-25.932 5.963m.01.001l12.86 17.456"/><path d="M871.657 551.017l25.682-6.597m-12.86-17.456l-12.82 24.053m12.82-24.053l-25.175 7.027m0-.001l12.354 17.026m-24.86 7.564l24.86-7.563M859.303 534l-12.505 24.6m12.505-24.6l-24.307 8.086m0 .001l11.802 16.503"/><path d="M822.876 567.105l23.922-8.525m-11.802-16.503l-12.12 25.028m12.12-25.028l-23.33 9.14m.001-.001l11.2 15.9"/><path d="M800.005 576.58l22.87-9.474m-11.208-15.9l-11.662 25.363m11.662-25.363l-22.23 10.18m0 0l10.568 15.183M778.307 587l21.698-10.4m-10.568-15.194L778.307 587m11.13-25.604L768.044 571.8m0 0l10.263 15.2"/><path d="M757.9 598.32L778.307 587m-10.263-15.2l-10.135 26.52m10.135-26.52l-20.006 11.44m0 0l9.87 15.08"/><path d="M738.94 610.55l18.97-12.23m-9.872-15.08l-9.098 27.3m9.098-27.3l-18.48 12.464m-.001.001l9.383 14.846"/><path d="M721.534 623.655l17.406-13.104m-9.383-14.846l-8.023 27.95m8.023-27.95l-16.808 13.46m.001-.001l8.785 14.5m-8.785-14.5l-1.87 7.686"/><path d="M712.75 609.164l-1.227 1.18m1.227-1.18l-.92-1.73M821.182 468.38l12.598-19.88m-34.54 30.72l21.942-10.84m-42.795 23.04l20.853-12.2m-40.496 25.744l19.643-13.544"/><path d="M764.546 518.297l13.84-26.877m-19.642 13.544l5.802 13.333"/><path d="M744.7 529.368l19.855-11.07m-5.8-13.334l-14.053 24.404"/><path d="M758.744 504.964l-6.366 3.83m-1.198 34.128l13.367-24.636M744.7 529.368l6.488 13.554m-18.903 12.012l18.904-12.012"/><path d="M744.7 529.368l-12.416 25.566"/><path d="M744.7 529.368l-9.26 6.343m-13.837 45.857l10.682-26.634"/><path d="M721.593 581.568l17.885-12.812m0 0l-7.203-13.822"/><path d="M721.593 581.568l7.964 14.137 9.92-26.95m3.395-45.97l1.82 6.582-2.312-5.82m-2.902 45.208l11.7-25.834m7.804 14.166l-10.944 26.153-8.56-14.485 19.504-11.668m0 0l-7.803-14.166 20.462-10.73m-12.66 24.896l12.66-24.895m8.318 14.387l-11.916 25.22-9.062-14.712 20.978-10.508m0 0l-8.32-14.387m8.32 14.387l12.605-26.173"/><path d="M792.565 520.407l-20.924 11.786m20.924-11.786l-7.743-14.762"/><path d="M784.822 505.645l-13.18 26.548-7.095-13.896 20.276-12.652m7.742 14.762l13.724-26.136m.001-.001l-21.467 11.374M806.3 494.27l-7.05-15.05"/><path d="M799.24 479.22l-14.418 26.424-6.435-14.225m23.153 44.206l-8.975-15.218 22.1-10.574m.001 0L806.3 494.27m8.367 15.562l14.174-25.64"/><path d="M828.83 484.194L806.3 494.27l14.893-25.9"/><path d="M828.83 484.194l-7.648-15.814m7.648 15.814l15.27-25.287"/><path d="M844.1 458.907l-22.918 9.473m22.918-9.473l-4.917-11.502m4.917 11.502l8.6-12.94m22.024 2.973l10.74 5.7m-8.782 13.304l8.782-13.302 7.446 5.602m-16.228 7.7l16.228-7.7 3.73 2.806m0 0l2.654 2.658m-12.518 19.742l12.517-19.742 10.85 14.584m-12.1 22.884l13.008-21.2 7.033 17.195m0-.001l1.7 6.094L910.4 521"/><path d="M898.054 503.186l20.04-4.016L910.4 521l-12.356-17.815m-11.268-17.725l23.366-5.158-12.088 22.884m-11.278-17.726l11.278 17.726m-25.43 6.388l25.43-6.388-13.576 23.778-11.854-17.4m14.152-24.104l-14.152 24.114"/><path d="M886.776 485.46l-24.903 6.893m0 0l10.75 17.22m-24.637 7.54l24.638-7.54-13.32 24.417-11.317-16.877m13.886-24.76l-13.887 24.76"/><path d="M861.873 492.353l-24.074 8.125m.001 0l10.187 16.636m-23.733 8.686l23.732-8.686-13 24.963-10.742-16.277m13.556-25.322L824.254 525.8"/><path d="M837.8 500.478l-23.143 9.355m-13.117 25.792l13.116-25.792 9.598 15.967m-22.714 9.825l22.714-9.825-12.587 25.416-10.127-15.6m75.142-67.672l-14.8 24.4-9.54-16.934"/><path d="M852.332 475.42L837.8 500.48l-8.97-16.284 23.502-8.775m24.35-7.467l-24.35 7.465m24.35-7.465l-8.795-17.142m0 0l-5.343 8.452-5.343 8.453-4.87 7.702-8.232-16.512m23.788-8.095l-23.787 8.095 20.967-12.2"/><path d="M867.887 450.812l-1.753-3.944m8.6 2.072l-6.837 1.87 2.287-3.298m6.498 20.442l-1.958-19.013-1.257-.483m13.3 37.002l-10.094-17.506 9.712-2.382 10.245-2.512-9.863 22.4M779.96 546.58l21.58-10.955-12.103 25.77-9.477-14.816m-67.884 59.187l.673 3.398 8.844-27.596m-6.085 70.92l-4.578-7.04m15.84 22.7l-11.262-15.67"/><path d="M726.77 668.157l5.042-29.257m0 0l-16.304 13.587m16.304-13.587l-10.278-15.245m-11.242 9.985l11.242-9.984-6.026 28.832"/><path d="M726.77 668.157l16.78-13.34m0-.001L731.812 638.9m11.738 15.916l6.15-28.78m0-.001L731.812 638.9l2.438-9.698 4.7-18.65 5.706 8.212 5.054 7.272"/><path d="M743.55 654.816l18.25-12.736m0 0l-12.1-16.045m12.1 16.045l7.243-28.156m0 0l-19.343 12.1 8.2-27.715 11.134 15.604"/><path d="M761.8 642.08l19.596-12.097m0 0l-6.097-7.926-6.098-7.927-.158-.206m12.353 16.06l8.324-27.388m0 0l-20.677 11.33 3.253-9.456 6-17.478 11.413 15.605"/><path d="M781.396 629.983l20.827-11.43m0 0l-12.503-15.958m12.503 15.958l9.38-26.483m0 0l-21.883 10.525 10.285-26.016 11.598 15.5"/><path d="M802.223 618.553l21.943-10.74m0 .001l-12.563-15.744m12.563 15.744l10.926-24.6m0 .01l-23.5 8.846 11.273-24.965 12.216 16.12"/><path d="M824.166 607.814l24.08-8.305m-.001.001l-13.153-16.285m13.153 16.285l11.337-24.277m0-.001l-24.5 7.992 11.706-24.644 12.784 16.652"/><path d="M848.245 599.5l25.024-7.548m.001-.002l-13.687-16.73m13.687 16.73l11.7-23.858m0 .001l-25.378 7.13 12.075-24.215 13.303 17.086"/><path d="M873.27 591.96l25.86-6.782m0 .002l-14.17-17.076m14.17 17.076l11.985-23.33m0 0l-26.155 6.254 12.38-23.683 13.776 17.43"/><path d="M919.373 580.606l-8.258-18.757m-11.985 23.33l20.243-4.573m-20.243 4.574l14.596 16.6 5.647-21.162 1.5-7.187"/><path d="M887.787 608.705l11.343-23.526 12.873 15.306 1.535 1.824m-25.75 6.396l25.75-6.396-2.72 6.75m-23.03-.354l23.03.353m-7.754 16.348l7.754-16.348-6.574 16.066-1.18.282m-15.276-16.7l15.276 16.7m-25.967 6.947l25.967-6.946"/><path d="M887.787 608.705l-10.7 23.647m-14.83-16.45l11-23.942 14.518 16.744-25.52 7.198m.002 0l14.828 16.45m-25.14 7.5l25.14-7.5"/><path d="M862.268 615.903l-10.313 23.95m-14.318-16.093l10.608-24.25 14.023 16.394-24.63 7.856m-.001 0l14.318 16.094m-21.663 11.42l21.663-11.422"/><path d="M837.637 623.76l-7.345 27.516M815.764 634.8l8.402-26.985 13.47 15.945-21.873 11.04m.001 0l14.528 16.476m-20.728 11.902l20.728-11.903"/><path d="M815.764 634.8l-6.2 28.38m-14.644-16.755l7.305-27.873 13.54 16.246-20.845 11.626m0 .001l14.645 16.753m-19.698 12.355l19.697-12.355"/><path d="M794.92 646.425l-5.052 29.108m-14.665-16.925l6.193-28.625 6.352 7.723 7.17 8.72-19.716 12.183m.001-.001l14.664 16.925M771.295 688.3l18.572-12.776"/><path d="M775.203 658.608l-3.908 29.7m-14.57-16.992l5.076-29.236 13.403 16.528-18.48 12.708m.001 0l14.57 16.993m-17.342 13.16l17.343-13.162"/><path d="M756.724 671.316l-2.772 30.155m-14.36-16.95l3.958-29.703 13.174 16.5-17.132 13.203m0 0l14.36 16.952m-14.36-16.952l1.63 26.956m4.255 2.906l8.475-12.9m-10.912 11.634l10.718 5.612m11.592 3.887l-11.593-3.887.194-17.247m11.4 21.123l-11.4-21.134m16.02 22.084l-4.618-.95 4.46-3.702"/><path d="M774.65 723.873l-4.68-.318-.158-4.652"/><path d="M787.17 723.66l-12.52.213-4.84-4.97"/><path d="M787.17 723.66l-17.36-4.756m34.76 1.986l-11.917 1.964-5.483.806.052-17.965m.001-.001l-17.412 13.2m17.412-13.2l-6.755-7.373-6.756-7.373-2.417-2.64-1.484 30.594-15.86-17.432-12.307 10.384"/><path d="M804.57 720.9l-17.348-15.195m24.35 12.58l-7 2.615 1.174-28.118m-.001-.012l-18.522 12.923 2.644-30.16 15.878 17.238m5.827 25.503l-5.827-25.503m17.068 20.917l-11.24 4.586 11.22-8.046m0 0l-17.048-17.457m17.048 17.457l2.5-30.06m.001-.001l-19.54 12.604 3.82-29.593 15.72 17"/><path d="M822.793 710.228l19.234-12.913m0 0l-16.743-17.148m16.743 17.148l3.725-29.4m0 .001l-20.468 12.25 5.008-28.892 15.46 16.64"/><path d="M842.027 697.315l20.065-12.652m0 0l-16.34-16.747m16.34 16.747l4.972-28.612m0-.001l-21.312 11.865 6.203-28.063 15.1 16.198"/><path d="M877.973 667.24l-13.105 15.108-2.506 2.687 4.702-28.985m23.85-6.75l-12.94 17.94-10.9-11.2"/><path d="M877.096 632.352l13.818 16.948-23.85 6.75 10.032-23.7m20.934 4.385l-4.84 8.75-2.276 3.815-12.823-15.898-.995-1.05 20.934 4.383m5.748-10.585l-5.748 10.585 5.033-11.33.715.744m-61.75 71.166l20.003-11.863-17.197 14.592m-2.976 2.108l.17-4.837 2.806 2.73-2.976 2.108m-19.064 8.075l19.064-8.076-16.704 10.36m-2.36-2.284l2.36 2.284-2.34 1.176-.02-3.46m-83.2-25.708l-12.475 10.875m-.347-27.238l-1.236 24.642m12.742 16.03l1.316-24.312-12.822-16.362m-9.056 8.294l7.375-6.754 1.68-1.54-2.187 23.084m198.25-131.74l-1.97 13.918-9.75-11.57m11.72-2.347l-11.718 2.348 12.623-23.053-.905 20.714"/></g><g class="K Q"><path d="M856.7 266.717l-9.893 3.222-9.306-3.1"/><use xlink:href="#B"/></g><g class="K R"><path d="M921.643 594.536l2.1-7.485 1.65-7.54 1.518-7.614 1.06-7.65.902-7.75.4-7.763.2-7.877-.33-7.846-.595-7.948-1.192-7.852-1.54-7.907-2.203-7.7-2.642-7.673-3.37-7.33-3.896-7.147-4.542-6.444-4.8-5.82-5.226-4.9-5.38-4.347-5.68-3.465-5.75-3-5.963-2.154-5.98-1.765-6.126-.98-6.12-.668-6.216.076-6.206.334-6.266 1.042-.264.054-6.002 1.216-6.3 1.96-6.318 2.176-7.83 3.46-7.818 4.137-7.765 4.802-7.668 5.443-7.53 6.063-7.348 6.652-7.127 7.2-6.862 7.73-6.56 8.2-6.22 8.648-5.842 9.037-5.433 9.38-5 9.668-4.52 9.9-4.024 10.08-3.506 10.203-2.35 8.314-2.184 8.342-1.634 8.375-1.458 8.424-.062.596-.822 7.82-.677 8.477-.068 8.418.185 8.47.838 8.34 1.16 8.357 1.863 8.13 2.262 8.073 3.015 7.713 3.5 7.534 4.275 7.008 4.8 6.66 5.44 5.788 5.633 5.055 5.97 4.044 1.662.944 4.367 2.48"/><path d="M882.324 451.466l-2.113-.735.4.186"/></g><g class="K"><path d="M1354.583 184.072L563.877 475.2" stroke-width="3"/><path d="M755.23 720.747l6.234 2.496 6.206 2.004 6.316 1.167 6.24.8 6.288.038 6.194-.247 6.202-.93 6.114-1.15 6.095-1.78 6.024-1.963 6-2.558 5.94-2.726 7.282-4 7.188-4.555 7.063-5.078 6.9-5.575 6.728-6.044 6.52-6.485 6.286-6.897 6.027-7.278 5.746-7.628 5.44-7.945 5.116-8.228 4.77-8.478 4.406-8.693 4.026-8.873 3.628-9.016 3.216-9.124m.002-.001l2.216-7.444" class="R"/></g><g stroke-width="3" class="K"><path d="M1326.357 511.6l28.226-327.52-9.715-2.368-264.62-64.5L293.912 345.14l57.824 383.517 251.273 170.13 723.348-387.195"/><path d="M293.912 345.14L563.877 475.2l39.132 423.586"/></g><g class="K Q S"><path d="M822.956 277.7l-9.893 3.222-9.306-3.1"/><use xlink:href="#B" x="-33.743" y="10.992"/></g><path d="M920.926 245.804l-9.362 3.05-9.307-2.944m0 0l9.364-3.026 9.305 2.92" class="K Q"/><path d="M886.368 453.834l1.707.622M712.22 655.706l3.3-3.22m-1.532 11.53l1.53-11.528-.216 16.478m3.602-93.38l2.7 5.983m-2.78-5.698l2.78 5.7-5.68 4.9m13.373-38.288l3 6.742-8.62 6.657m34.024-59.667l1.064 3.04m5.406-10.694l-5.406 10.695 6.3-11.7" class="K R"/><ellipse cx="779.451" cy="288.727" rx="7.374" ry="2.694" class="Q"/><path d="M775.182 482.788l3.205 8.632 12.436-21.775m3.654-2.595l4.763 12.17 14-23.233m2.416-1.067l5.516 13.46m6.298-17.986l-6.3 17.986 14.485-20.263" class="K R"/><g class="Q"><ellipse cx="1136.817" cy="172.803" rx="7.374" ry="2.694"/><ellipse cx="550.578" cy="362.967" rx="7.374" ry="2.694"/><ellipse cx="972.225" cy="226.193" rx="7.374" ry="2.694"/><g class="K S"><path d="M952.53 235.758l-9.893 3.222-9.306-3.1"/><use xlink:href="#B" x="95.83" y="-30.958"/></g></g></g></g><path d="M745.733 86.853c5-3.14 9.998 6.265 14.997 9.183s9.998-23.9 14.997-26.15 9.998 37.897 14.997 39.136 9.998-46.124 14.997-46.164 9.998 47.33 14.997 46.164 9.998-41.33 14.997-39.136 9.998 29.036 14.997 26.15 9.998-12.324 14.997-9.183" fill="none" stroke-linecap="round" stroke-width="1.5" stroke="#000"/></svg>